<?xml version="1.0" encoding="UTF-8"?> <svg xmlns="http://www.w3.org/2000/svg" width="376" height="383" viewBox="0 0 376 383" fill="none"> <path d="M344 1H1V209H344V1Z" fill="white" stroke="#263238" stroke-linecap="round" stroke-linejoin="round"></path> <path d="M198.67 28.3301H12.6699V44.5801H198.67V28.3301Z" stroke="#263238" stroke-linecap="round" stroke-linejoin="round"></path> <path d="M198.67 53.79H12.6699V147.67H198.67V53.79Z" stroke="#263238" stroke-linecap="round" stroke-linejoin="round"></path> <path d="M335.181 121.66H209.211V196.44H335.181V121.66Z" stroke="#263238" stroke-linecap="round" stroke-linejoin="round"></path> <path d="M209.211 196.44L335.181 121.66" stroke="#263238" stroke-linecap="round" stroke-linejoin="round"></path> <path d="M335.181 196.44L209.211 121.66" stroke="#263238" stroke-linecap="round" stroke-linejoin="round"></path> <path d="M166.07 161.93H196.55" stroke="#263238" stroke-linecap="round" stroke-linejoin="round"></path> <path d="M112 161.93H159.74" stroke="#263238" stroke-linecap="round" stroke-linejoin="round"></path> <path d="M38.3691 161.93H102.789" stroke="#263238" stroke-linecap="round" stroke-linejoin="round"></path> <path d="M13.6406 161.93H30.8906" stroke="#263238" stroke-linecap="round" stroke-linejoin="round"></path> <path d="M58.5 170.55H196.55" stroke="#263238" stroke-linecap="round" stroke-linejoin="round"></path> <path d="M13.6406 170.55H51.6006" stroke="#263238" stroke-linecap="round" stroke-linejoin="round"></path> <path d="M131.551 179.18H196.551" stroke="#263238" stroke-linecap="round" stroke-linejoin="round"></path> <path d="M67.1309 179.18H122.351" stroke="#263238" stroke-linecap="round" stroke-linejoin="round"></path> <path d="M13.6406 179.18H60.8006" stroke="#263238" stroke-linecap="round" stroke-linejoin="round"></path> <path d="M121.199 187.81H196.549" stroke="#263238" stroke-linecap="round" stroke-linejoin="round"></path> <path d="M59.6504 187.81H113.72" stroke="#263238" stroke-linecap="round" stroke-linejoin="round"></path> <path d="M13.6406 187.81H53.3306" stroke="#263238" stroke-linecap="round" stroke-linejoin="round"></path> <path d="M163.189 196.44H196.549" stroke="#263238" stroke-linecap="round" stroke-linejoin="round"></path> <path d="M84.3906 196.44H156.861" stroke="#263238" stroke-linecap="round" stroke-linejoin="round"></path> <path d="M51.5996 196.44H78.0596" stroke="#263238" stroke-linecap="round" stroke-linejoin="round"></path> <path d="M25.7207 196.44H41.2507" stroke="#263238" stroke-linecap="round" stroke-linejoin="round"></path> <path d="M13.6406 196.44H25.7206" stroke="#263238" stroke-linecap="round" stroke-linejoin="round"></path> <path d="M344 1H1V16H344V1Z" fill="#1998FF" stroke="#263238" stroke-linecap="round" stroke-linejoin="round"></path> <path d="M336.27 5.5H50.2695V11.55H336.27V5.5Z" fill="white" stroke="#263238" stroke-linecap="round" stroke-linejoin="round"></path> <path d="M44.3093 5.5H6.2793V11.55H44.3093V5.5Z" fill="white" stroke="#263238" stroke-linecap="round" stroke-linejoin="round"></path> <path d="M363.699 36.96H233.699V110.96H363.699V36.96Z" fill="white" stroke="#263238" stroke-linecap="round" stroke-linejoin="round"></path> <path d="M363.699 96.96H233.699V110.96H363.699V96.96Z" fill="white" stroke="#263238" stroke-linecap="round" stroke-linejoin="round"></path> <path d="M315.81 68.2598L281.6 48.5098V88.0098L315.81 68.2598Z" fill="#1998FF" stroke="#263238" stroke-linecap="round" stroke-linejoin="round"></path> <path d="M237.97 33.0801H230.49V40.5601H237.97V33.0801Z" fill="white" stroke="#263238" stroke-linecap="round" stroke-linejoin="round"></path> <path d="M367.099 33.0801H359.619V40.5601H367.099V33.0801Z" fill="white" stroke="#263238" stroke-linecap="round" stroke-linejoin="round"></path> <path d="M237.97 105.84H230.49V113.32H237.97V105.84Z" fill="white" stroke="#263238" stroke-linecap="round" stroke-linejoin="round"></path> <path d="M367.099 105.84H359.619V113.32H367.099V105.84Z" fill="white" stroke="#263238" stroke-linecap="round" stroke-linejoin="round"></path> <path d="M78.3394 97.8399V110.84H75.1094V81.9199H78.3394V94.9199H85.4494V81.9199H88.6694V110.86H85.4494V97.8599L78.3394 97.8399Z" fill="#263238"></path> <path d="M96.1503 110.86V84.8599H90.8203V81.9199H104.67V84.8599H99.3403V110.86H96.1503Z" fill="#263238"></path> <path d="M117.52 110.82H114.42L109.63 87.8196V110.89H106.82V81.9196H111.32L116.08 105L120.67 81.8896H125.17V110.83H122.11V87.5896L117.52 110.82Z" fill="#263238"></path> <path d="M128.48 110.86V81.9199H131.7V107.92H140V110.86H128.48Z" fill="#263238"></path> <path d="M346.199 107.5L353.109 138.5C353.173 138.705 353.296 138.886 353.463 139.021C353.63 139.156 353.833 139.239 354.046 139.259C354.26 139.279 354.474 139.236 354.663 139.135C354.853 139.034 355.008 138.879 355.109 138.69L359.589 129.26C359.677 129.07 359.819 128.911 359.996 128.8C360.174 128.69 360.38 128.635 360.589 128.64L371.009 129.21C371.23 129.22 371.449 129.163 371.636 129.046C371.824 128.929 371.971 128.757 372.059 128.555C372.147 128.352 372.171 128.127 372.128 127.91C372.085 127.693 371.978 127.494 371.819 127.34L347.999 106.43C347.827 106.269 347.607 106.168 347.372 106.142C347.137 106.117 346.9 106.168 346.697 106.289C346.494 106.409 346.336 106.593 346.246 106.811C346.156 107.03 346.14 107.272 346.199 107.5Z" fill="#263238"></path> <path d="M374.66 135H365.33V144.33H374.66V135Z" fill="white" stroke="#263238" stroke-width="0.75" stroke-linecap="round" stroke-linejoin="round"></path> <path d="M365.98 134.26H364.58V135.66H365.98V134.26Z" fill="#263238"></path> <path d="M370.72 134.26H369.32V135.66H370.72V134.26Z" fill="#263238"></path> <path d="M375.259 134.26H373.859V135.66H375.259V134.26Z" fill="#263238"></path> <path d="M365.98 138.98H364.58V140.38H365.98V138.98Z" fill="#263238"></path> <path d="M370.72 138.98H369.32V140.38H370.72V138.98Z" fill="#263238"></path> <path d="M375.259 138.98H373.859V140.38H375.259V138.98Z" fill="#263238"></path> <path d="M365.98 143.52H364.58V144.92H365.98V143.52Z" fill="#263238"></path> <path d="M370.72 143.52H369.32V144.92H370.72V143.52Z" fill="#263238"></path> <path d="M375.259 143.52H373.859V144.92H375.259V143.52Z" fill="#263238"></path> <path d="M150.469 238.84L147.509 239.42L138.939 197.05L141.899 196.47L150.469 238.84Z" fill="white" stroke="#263238" stroke-linecap="round" stroke-linejoin="round"></path> <path d="M203.63 238H147.33V240.01H203.63V238Z" fill="white" stroke="#263238" stroke-linecap="round" stroke-linejoin="round"></path> <path d="M306.199 343.55H219.209V347.8H306.199V343.55Z" fill="white" stroke="#263238" stroke-linecap="round" stroke-linejoin="round"></path> <path d="M319.33 212.59C319.33 212.59 311.09 277.91 308.81 298.15C306.53 318.39 315.49 381.93 315.49 381.93H310.26L299.99 309.93H223.25L218.34 380.64H214.42L221 298.48V289.55C221 289.093 221.09 288.641 221.265 288.219C221.44 287.796 221.696 287.413 222.019 287.09C222.342 286.766 222.726 286.51 223.148 286.335C223.57 286.16 224.023 286.07 224.48 286.07H298L309.51 205.41C309.51 205.41 310.81 197.9 317.34 200.19C323.87 202.48 319.33 212.59 319.33 212.59Z" fill="#263238" stroke="#263238" stroke-linecap="round" stroke-linejoin="round"></path> <path d="M317.369 200.191C317.199 200.125 317.025 200.068 316.849 200.021C317.349 201.021 317.649 202.761 317.049 206.021C315.739 213.211 301.949 298.771 301.949 298.771H220.949L214.459 381.591H218.379L226.919 309.871H299.999L310.269 381.871H315.499C315.499 381.871 306.499 318.341 308.819 298.091C311.139 277.841 320.879 214.021 320.879 214.021C320.879 214.021 323.909 202.471 317.369 200.191Z" fill="white" stroke="#263238" stroke-linecap="round" stroke-linejoin="round"></path> <path d="M239.1 218.29L198.23 220.61L180 231.15L176.4 237.32L179.22 237.83L185.65 235C185.65 235 192.85 233.72 194.91 232.95C196.97 232.18 202.6 226 202.6 226L240.6 232.17L239.1 218.29Z" fill="white" stroke="#263238" stroke-linecap="round" stroke-linejoin="round"></path> <path d="M180.149 344.6C180.149 344.6 172.949 357.2 171.919 357.2C170.889 357.2 162.549 359.05 155.919 355.71C149.289 352.37 144.349 349.8 142.289 352.88C141.259 354.32 140.396 355.874 139.719 357.51C139.719 357.51 145.889 366.25 151.549 369.33C157.209 372.41 159.629 370.82 165.549 374.16C171.469 377.5 171.979 380.07 176.859 379.05C181.739 378.03 184.579 362.34 185.859 360.54C187.139 358.74 191.999 348.71 191.999 348.71L180.149 344.6Z" fill="white" stroke="#263238" stroke-linecap="round" stroke-linejoin="round"></path> <path d="M173.159 355.9C172.569 356.7 172.159 357.2 171.919 357.2C170.919 357.2 162.549 359.05 155.919 355.71C149.289 352.37 144.349 349.8 142.289 352.88C141.259 354.321 140.396 355.874 139.719 357.51C139.719 357.51 145.889 366.25 151.549 369.33C157.209 372.41 159.629 370.82 165.549 374.16C171.469 377.5 171.979 380.07 176.859 379.05C181.189 378.13 183.859 365.74 185.359 361.66C180.919 360.52 176.159 357.81 173.159 355.9Z" fill="#263238" stroke="#263238" stroke-linecap="round" stroke-linejoin="round"></path> <path d="M176.8 379.05C176.946 379.014 177.09 378.968 177.23 378.91C177.278 378.895 177.325 378.875 177.37 378.85L177.65 378.71L177.81 378.61L178.06 378.44L178.22 378.31L178.46 378.1L178.61 377.95C178.698 377.869 178.782 377.782 178.86 377.69L179 377.53C179.08 377.43 179.17 377.33 179.25 377.22L179.37 377.07L179.66 376.65L179.73 376.55C179.93 376.25 180.12 375.92 180.31 375.55C175.31 375.55 171.91 372.4 166.52 370.55C159.84 368.24 159.46 370.1 154.58 366.75C149.7 363.4 149.18 361.36 149.18 361.36L153.51 354.52C148.04 351.82 144.05 350.16 142.24 352.87C141.21 354.311 140.348 355.864 139.67 357.5C139.67 357.5 145.84 366.24 151.5 369.32C157.16 372.4 159.58 370.81 165.5 374.15C171.42 377.49 171.92 380.07 176.8 379.05Z" fill="white" stroke="#263238" stroke-linecap="round" stroke-linejoin="round"></path> <path d="M187.86 280.33L165 337.4L192.25 352.83C192.25 352.83 221.25 287.02 221.55 285.73C221.85 284.44 226.95 283.16 226.95 283.16L247.75 286C247.75 286 216.39 272.12 207.14 270.06C197.89 268 191.71 269.54 187.86 280.33Z" fill="#1998FF" stroke="#263238" stroke-linecap="round" stroke-linejoin="round"></path> <path d="M211.589 324.72L224.449 336.8C224.449 336.8 220.079 347.6 214.939 354.54C209.799 361.48 209.279 365.54 211.589 367.13C213.899 368.72 218.529 368.42 221.589 366.36C224.649 364.3 242.149 347.08 244.209 344C244.871 342.952 245.134 341.701 244.95 340.474C244.767 339.248 244.149 338.129 243.209 337.32C242.439 336.8 225.479 316.49 225.479 316.49L211.589 324.72Z" fill="white" stroke="#263238" stroke-linecap="round" stroke-linejoin="round"></path> <path d="M244.24 344C244.902 342.952 245.165 341.7 244.982 340.474C244.798 339.248 244.18 338.129 243.24 337.32C242.88 337.07 238.89 332.4 234.78 327.54C231.02 332.09 224.23 334.63 222.73 335.16L224.48 336.8C224.48 336.8 220.11 347.6 214.97 354.54C209.83 361.48 209.31 365.54 211.62 367.13C213.93 368.72 218.56 368.42 221.62 366.36C224.68 364.3 242.18 347.08 244.24 344Z" fill="#263238" stroke="#263238" stroke-linecap="round" stroke-linejoin="round"></path> <path d="M243.54 337.6C243.409 339.368 242.759 341.059 241.67 342.46C238.59 346.31 221.36 362.25 221.36 362.25L213.36 356.73C209.68 362.35 209.49 365.73 211.54 367.13C213.86 368.68 218.48 368.42 221.54 366.36C224.6 364.3 242.1 347.08 244.16 344C244.793 343.019 245.076 341.853 244.963 340.692C244.851 339.53 244.349 338.441 243.54 337.6V337.6Z" fill="white" stroke="#263238" stroke-linecap="round" stroke-linejoin="round"></path> <path d="M236.27 336.29C236.296 336.829 236.16 337.363 235.879 337.824C235.599 338.285 235.187 338.651 234.696 338.876C234.206 339.1 233.659 339.172 233.127 339.083C232.595 338.994 232.102 338.748 231.712 338.376C231.321 338.004 231.05 337.524 230.935 336.997C230.82 336.47 230.865 335.92 231.065 335.419C231.265 334.918 231.611 334.489 232.057 334.186C232.504 333.883 233.031 333.721 233.57 333.72C234.268 333.704 234.945 333.966 235.451 334.448C235.957 334.929 236.252 335.592 236.27 336.29Z" fill="white"></path> <path d="M244.499 243.49L243.209 247.86C243.209 247.86 204.399 248.37 187.429 253C170.459 257.63 165.839 260.2 167.119 269.71C168.399 279.22 194.629 334 194.629 334C199.907 332.519 205.063 330.63 210.049 328.35C215.953 325.472 221.552 322.004 226.759 318L207.219 280.72C207.219 280.72 229.589 285.35 254.519 287.66C279.449 289.97 289.999 287.4 294.109 279.95C298.219 272.5 291.279 242.68 291.279 242.68L244.759 241.13L244.499 243.49Z" fill="#1998FF" stroke="#263238" stroke-linecap="round" stroke-linejoin="round"></path> <path d="M189.999 268.45C189.123 267.592 188.354 266.632 187.709 265.59" stroke="#263238" stroke-linecap="round" stroke-linejoin="round"></path> <path d="M207.22 280.76C202.024 277.797 197.069 274.43 192.4 270.69" stroke="#263238" stroke-linecap="round" stroke-linejoin="round"></path> <path d="M210.1 302.23L212.16 303.23" stroke="#263238" stroke-linecap="round" stroke-linejoin="round"></path> <path d="M174.109 271.92C182.915 283.439 193.939 293.079 206.529 300.27" stroke="#263238" stroke-linecap="round" stroke-linejoin="round"></path> <path d="M281.809 260.53C282.791 261.293 283.723 262.118 284.599 263" stroke="#263238" stroke-linecap="round" stroke-linejoin="round"></path> <path d="M245.779 248.37C245.779 248.37 264.619 249.83 277.919 257.85" stroke="#263238" stroke-linecap="round" stroke-linejoin="round"></path> <path d="M271.49 252.74C271.49 252.74 283.83 253 288.71 258.14" stroke="#263238" stroke-linecap="round" stroke-linejoin="round"></path> <path d="M248.099 166.37C248.099 166.37 239.359 192.37 238.099 200.3C236.839 208.23 237.589 242.97 237.589 242.97C237.589 242.97 258.149 249.14 269.719 247.86C281.289 246.58 295.719 244.26 295.719 244.26C295.719 244.26 293.149 198.26 290.839 182.31C288.529 166.36 283.129 157.11 277.989 153.26C274.571 150.749 270.96 148.512 267.189 146.57L248.099 166.37Z" fill="#263238" stroke="#263238" stroke-linecap="round" stroke-linejoin="round"></path> <path d="M202.849 126.27C203.407 129.528 204.542 132.66 206.199 135.52C208.769 139.63 212.369 141.43 211.339 145.52C210.309 149.61 210.339 152.46 213.339 152.71L216.429 152.97C216.429 152.97 222.599 163.51 227.229 163.51C231.859 163.51 244.999 151.72 244.999 151.72C244.999 151.72 238.059 119.07 238.059 118.04C238.059 117.01 201.299 121.9 201.299 121.9L202.849 126.27Z" fill="white" stroke="#263238" stroke-linecap="round" stroke-linejoin="round"></path> <path d="M218.15 139.48C218.64 140.48 218.47 141.61 217.76 141.95C217.05 142.29 216.09 141.73 215.6 140.7C215.11 139.67 215.28 138.57 215.99 138.24C216.7 137.91 217.66 138.46 218.15 139.48Z" fill="#263238"></path> <path d="M211.85 136.55C211.85 136.55 211.59 132.95 216.99 133.72" stroke="#263238" stroke-linecap="round" stroke-linejoin="round"></path> <path d="M219.359 153.82C219.519 154.39 225.639 154.05 224.699 148.63" stroke="#263238" stroke-linecap="round" stroke-linejoin="round"></path> <path d="M254.999 114.18C254.149 103.77 241.189 107.76 235.119 110.91L234.949 110.59L210.529 117.53C210.329 118.52 210.445 119.549 210.859 120.47C211.273 121.392 211.966 122.161 212.839 122.67C217.951 126.477 223.991 128.842 230.329 129.52C232.149 140.4 234.689 156.66 234.689 162.77C234.689 172.28 231.089 175.88 231.089 175.88C231.089 175.88 247.539 170.74 257.089 161.74C262.637 156.572 267.479 150.695 271.489 144.26C271.489 144.26 256.069 126.78 254.999 114.18Z" fill="#585858" stroke="#263238" stroke-linecap="round" stroke-linejoin="round"></path> <path d="M230.369 129.52L229.639 126.12" stroke="#263238" stroke-linecap="round" stroke-linejoin="round"></path> <path d="M242.57 153.18C242.78 154.35 242.95 155.44 243.07 156.39" stroke="#263238" stroke-linecap="round" stroke-linejoin="round"></path> <path d="M236.209 126.12C236.209 126.12 239.839 139.53 241.889 149.6" stroke="#263238" stroke-linecap="round" stroke-linejoin="round"></path> <path d="M248.35 129.49L253.34 142.68" stroke="#263238" stroke-linecap="round" stroke-linejoin="round"></path> <path d="M246.209 123.83L247.499 127.24" stroke="#263238" stroke-linecap="round" stroke-linejoin="round"></path> <path d="M252.49 124.12L254.77 129.83" stroke="#263238" stroke-linecap="round" stroke-linejoin="round"></path> <path d="M200.33 125.87C200.33 125.87 183.13 135 188.86 135C194.59 135 223.27 123.15 224.41 123.15C225.55 123.15 205.3 125.1 200.33 125.87Z" fill="#757575" stroke="#263238" stroke-linecap="round" stroke-linejoin="round"></path> <path d="M200.33 125.87C200.33 125.87 190.04 129.13 194.63 118.04C199.22 106.95 230.47 90.79 243.47 90.79C256.47 90.79 266.08 110.19 264.17 116.31C262.26 122.43 258.05 123.19 256.17 123.19C254.29 123.19 200.33 125.87 200.33 125.87Z" fill="#757575" stroke="#263238" stroke-linecap="round" stroke-linejoin="round"></path> <path d="M205.299 122.43C205.299 122.43 224.029 122.81 240.089 120.52C256.149 118.23 262.639 115.93 262.639 115.93" stroke="#263238" stroke-linecap="round" stroke-linejoin="round"></path> <path d="M260.349 120.9L235.119 121.28" stroke="#263238" stroke-linecap="round" stroke-linejoin="round"></path> <path d="M244.5 221.89L241.16 225C241.16 225 199.51 219.6 196.68 220.37C193.85 221.14 183.83 223.97 183.83 223.97L175.83 224.48L169.41 235.28H171.46L176.09 228.85H179L174.11 234.51L172 237.57L179.19 237.83L180.24 236.94L184.34 233.46L183.05 237.32H184.59L188.19 231.15L193.08 228.58L198.22 224.98C198.22 224.98 250.66 243.23 251.94 243.98C253.22 244.73 256.06 246.81 258.37 244.75C260.68 242.69 266.85 225.47 266.85 225.47L244.5 221.89Z" fill="white" stroke="#263238" stroke-linecap="round" stroke-linejoin="round"></path> <path d="M175.219 237.221C177.885 235.127 180.242 232.665 182.219 229.911C182.219 229.911 182.569 227.201 184.929 226.771" stroke="#263238" stroke-linecap="round" stroke-linejoin="round"></path> <path d="M184.35 233.46L185.51 228.99L186.79 227.96" stroke="#263238" stroke-linecap="round" stroke-linejoin="round"></path> <path d="M179 228.83C179.678 227.745 180.498 226.756 181.44 225.89C182.31 225.37 182.84 225.11 182.84 225.11" stroke="#263238" stroke-linecap="round" stroke-linejoin="round"></path> <path d="M222.5 233.46C236.42 238.34 251.28 243.6 252 244C253.29 244.77 256.12 246.83 258.43 244.77C260.74 242.71 266.91 225.49 266.91 225.49L244.55 221.89L241.16 225C241.16 225 233.5 224 224.54 222.93L222.5 233.46Z" fill="#757575" stroke="#263238" stroke-linecap="round" stroke-linejoin="round"></path> <path d="M252 182.82L240.9 220.09C240.9 220.09 241.9 225.24 252.21 228.09C257.89 229.751 263.773 230.616 269.69 230.66L277.92 184.39" fill="#263238"></path> <path d="M252 182.82L240.9 220.09C240.9 220.09 241.9 225.24 252.21 228.09C257.89 229.751 263.773 230.616 269.69 230.66L277.92 184.39" stroke="#263238" stroke-linecap="round" stroke-linejoin="round"></path> <path d="M251.259 186.18L241.229 217.27" stroke="#707070" stroke-linecap="round" stroke-linejoin="round"></path> <path d="M275.75 196.14L270.82 227.8" stroke="#707070" stroke-linecap="round" stroke-linejoin="round"></path> <path d="M276.829 189.18L276.289 192.66" stroke="#707070" stroke-linecap="round" stroke-linejoin="round"></path> <path d="M159.5 242.5H150.5V376.3H159.5V242.5Z" fill="#263238" stroke="#263238" stroke-linecap="round" stroke-linejoin="round"></path> <path d="M220.851 240.14H86.8906V245.67H220.851V240.14Z" fill="#757575" stroke="#263238" stroke-linecap="round" stroke-linejoin="round"></path> <path d="M203.231 381.769H106.791C106.794 380.303 107.377 378.898 108.414 377.862C109.45 376.825 110.855 376.242 112.321 376.239H197.701C199.167 376.242 200.572 376.825 201.608 377.862C202.645 378.898 203.228 380.303 203.231 381.769V381.769Z" fill="#757575" stroke="#263238" stroke-linecap="round" stroke-linejoin="round"></path> <path d="M125.609 241.12H108.009L105.369 208.2H128.249L125.609 241.12Z" fill="#1998FF" stroke="#263238" stroke-linecap="round" stroke-linejoin="round"></path> <path d="M129.19 204.95H103.77V212.45H129.19V204.95Z" fill="white" stroke="#263238" stroke-linecap="round" stroke-linejoin="round"></path> <path d="M126.339 231.99L127.309 219.94H106.309L107.279 231.99H126.339Z" fill="white" stroke="#263238" stroke-linecap="round" stroke-linejoin="round"></path> </svg> 