<?xml version="1.0" encoding="UTF-8"?> <svg xmlns="http://www.w3.org/2000/svg" width="382" height="403" viewBox="0 0 382 403" fill="none"> <path d="M28.1898 152.18H22.7698C16.9536 152.18 11.3757 154.49 7.26299 158.603C3.15032 162.716 0.839844 168.293 0.839844 174.11V294.45C0.839844 300.266 3.15032 305.844 7.26299 309.957C11.3757 314.069 16.9536 316.38 22.7698 316.38H97.1299C102.946 316.38 108.524 314.069 112.637 309.957C116.749 305.844 119.06 300.266 119.06 294.45" stroke="#263238" stroke-width="1.10311" stroke-linecap="round" stroke-linejoin="round" stroke-dasharray="4.41 4.41"></path> <path d="M113 38.6297V14.8597C113 11.303 114.411 7.89159 116.923 5.37383C119.435 2.85608 122.843 1.43763 126.4 1.42969H223.1C226.662 1.42969 230.078 2.84463 232.596 5.36324C235.115 7.88186 236.53 11.2978 236.53 14.8597" stroke="#263238" stroke-width="1.10311" stroke-linecap="round" stroke-linejoin="round" stroke-dasharray="4.41 4.41"></path> <path d="M380.541 70.5203V250.58C380.541 256.466 378.203 262.112 374.042 266.275C369.881 270.438 364.237 272.778 358.351 272.78H41.6509C35.7649 272.778 30.1208 270.438 25.9596 266.275C21.7985 262.112 19.4609 256.466 19.4609 250.58V70.5203C19.4609 69.9903 19.4609 69.5203 19.5309 68.9603C19.9208 63.3591 22.4205 58.1141 26.5257 54.2836C30.6309 50.453 36.0361 48.322 41.6509 48.3203H358.351C363.972 48.3226 369.383 50.4593 373.489 54.2982C377.595 58.1371 380.091 63.3919 380.471 69.0003C380.521 69.4803 380.541 70.0003 380.541 70.5203Z" fill="white" stroke="#263238" stroke-width="1.10311" stroke-linecap="round" stroke-linejoin="round"></path> <path d="M30.2617 77.2803H370.872V243.61C370.872 249.127 368.68 254.417 364.78 258.318C360.879 262.219 355.588 264.41 350.072 264.41H51.0717C45.5552 264.41 40.2647 262.219 36.3639 258.318C32.4631 254.417 30.2717 249.127 30.2717 243.61V77.2803H30.2617Z" fill="#263238"></path> <path opacity="0.2" d="M370.88 77.2803V243.61C370.909 249.096 368.759 254.369 364.901 258.269C361.044 262.17 355.796 264.379 350.31 264.41H50.8301C45.3444 264.379 40.096 262.17 36.2386 258.269C32.3813 254.369 30.2308 249.096 30.2601 243.61V77.2803H370.88Z" fill="white"></path> <path d="M380.471 69.0004H19.5312C19.9211 63.3991 22.4208 58.1541 26.526 54.3236C30.6312 50.493 36.0365 48.362 41.6513 48.3604H358.351C363.966 48.362 369.371 50.493 373.477 54.3236C377.582 58.1541 380.081 63.3991 380.471 69.0004V69.0004Z" fill="#1998FF" stroke="#263238" stroke-width="1.10311" stroke-miterlimit="10"></path> <path d="M63.8815 58.64C63.8815 59.4172 63.651 60.1771 63.2192 60.8234C62.7873 61.4696 62.1735 61.9734 61.4554 62.2708C60.7373 62.5683 59.9471 62.6461 59.1848 62.4944C58.4224 62.3428 57.7222 61.9685 57.1726 61.4189C56.6229 60.8693 56.2486 60.169 56.097 59.4067C55.9454 58.6443 56.0232 57.8541 56.3206 57.136C56.6181 56.4179 57.1218 55.8041 57.7681 55.3723C58.4144 54.9404 59.1742 54.71 59.9515 54.71C60.9938 54.71 61.9934 55.124 62.7304 55.861C63.4674 56.598 63.8815 57.5977 63.8815 58.64Z" fill="#263238"></path> <path d="M80.5006 58.64C80.5006 59.4172 80.2701 60.1771 79.8383 60.8234C79.4065 61.4696 78.7927 61.9734 78.0746 62.2708C77.3565 62.5683 76.5663 62.6461 75.8039 62.4944C75.0416 62.3428 74.3413 61.9685 73.7917 61.4189C73.2421 60.8693 72.8678 60.169 72.7161 59.4067C72.5645 58.6443 72.6423 57.8541 72.9398 57.136C73.2372 56.4179 73.741 55.8041 74.3872 55.3723C75.0335 54.9404 75.7933 54.71 76.5706 54.71C77.6129 54.71 78.6125 55.124 79.3495 55.861C80.0866 56.598 80.5006 57.5977 80.5006 58.64V58.64Z" fill="#263238"></path> <path d="M93.1917 62.57C95.3622 62.57 97.1217 60.8104 97.1217 58.64C97.1217 56.4695 95.3622 54.71 93.1917 54.71C91.0212 54.71 89.2617 56.4695 89.2617 58.64C89.2617 60.8104 91.0212 62.57 93.1917 62.57Z" fill="#263238"></path> <path d="M370.871 77.2803V243.61C370.871 249.127 368.68 254.417 364.779 258.318C360.878 262.219 355.588 264.41 350.071 264.41H51.071C46.2564 264.409 41.5911 262.738 37.871 259.682C34.1508 256.626 31.6062 252.373 30.671 247.65V247.59C30.4168 246.272 30.2896 244.933 30.291 243.59V77.2803H370.871Z" stroke="#263238" stroke-width="1.10311" stroke-miterlimit="10"></path> <path d="M370.552 103C369.093 102.181 367.542 101.54 365.932 101.09L364.062 92.7402H356.122L354.272 101.09C352.652 101.532 351.093 102.174 349.632 103L342.462 98.4102L336.852 104L341.362 111.17C340.536 112.632 339.894 114.191 339.452 115.81L331.102 117.66V125.6L339.452 127.47C339.889 129.098 340.531 130.664 341.362 132.13L336.772 139.35L342.392 144.96L349.602 140.37C351.06 141.198 352.615 141.843 354.232 142.29L356.092 150.63H364.002L365.862 142.29C367.473 141.839 369.025 141.194 370.482 140.37L370.852 140.61V102.8L370.552 103ZM360.112 132C358.082 132 356.098 131.398 354.41 130.27C352.723 129.143 351.408 127.54 350.632 125.664C349.855 123.789 349.653 121.725 350.049 119.735C350.446 117.744 351.424 115.916 352.86 114.482C354.296 113.047 356.125 112.071 358.116 111.676C360.107 111.281 362.17 111.486 364.045 112.264C365.919 113.042 367.521 114.359 368.647 116.047C369.773 117.736 370.374 119.721 370.372 121.75C370.372 123.097 370.106 124.431 369.59 125.675C369.075 126.919 368.319 128.05 367.366 129.002C366.413 129.954 365.282 130.708 364.037 131.223C362.792 131.737 361.458 132.002 360.112 132V132Z" fill="#263238"></path> <path d="M227.45 111.05V94.3103L209.85 90.4003C208.901 86.9995 207.558 83.7207 205.85 80.6303L207.98 77.2803H124.88L126.93 80.5403C125.201 83.6171 123.858 86.8951 122.93 90.3003L105.32 94.2203V111L122.93 114.93C123.858 118.361 125.201 121.665 126.93 124.77L117.26 139.98L129.11 151.82L144.31 142.14C147.394 143.875 150.674 145.235 154.08 146.19L158 163.74H174.7L178.64 146.15C182.036 145.19 185.305 143.83 188.38 142.1L203.59 151.78L215.43 139.94L205.82 124.73C207.524 121.645 208.866 118.373 209.82 114.98L227.45 111.05ZM166.45 124.31C162.172 124.31 157.99 123.042 154.433 120.665C150.876 118.288 148.104 114.91 146.467 110.958C144.83 107.005 144.401 102.656 145.236 98.4605C146.071 94.2647 148.131 90.4106 151.156 87.3856C154.181 84.3605 158.035 82.3005 162.23 81.4659C166.426 80.6313 170.775 81.0596 174.728 82.6968C178.68 84.3339 182.058 87.1062 184.435 90.6633C186.812 94.2203 188.08 98.4023 188.08 102.68C188.082 105.521 187.523 108.334 186.436 110.959C185.35 113.584 183.757 115.969 181.748 117.978C179.739 119.987 177.354 121.58 174.729 122.666C172.104 123.753 169.291 124.312 166.45 124.31V124.31Z" fill="#263238"></path> <path d="M116.382 226L117.092 212.71L103.322 208.83C102.682 206.099 101.736 203.449 100.502 200.93L108.822 189.25L99.9017 179.36L87.4417 186.36C85.0601 184.862 82.5132 183.643 79.8517 182.73L77.4717 168.61L64.1917 168L60.3517 181.81C57.6157 182.424 54.9634 183.364 52.4517 184.61L40.7817 176.3L30.8717 185.21L37.9317 197.68C36.4182 200.051 35.196 202.596 34.2917 205.26L30.2917 205.92V223.92L33.2117 224.74C33.8175 227.48 34.7544 230.136 36.0017 232.65L30.2617 240.7L30.6417 247.59V247.65L36.5717 254.22L49.0517 247.17C51.4292 248.699 53.9849 249.932 56.6617 250.84L59.0017 264.4L59.1117 264.97L72.3917 265.67L72.7417 264.4L76.2317 251.87C78.98 251.255 81.6454 250.315 84.1717 249.07L95.8217 257.37L105.722 248.47L98.7217 235.99C100.221 233.622 101.427 231.08 102.312 228.42L116.382 226ZM81.1117 205.25C78.8369 202.72 75.8628 200.921 72.5655 200.081C69.2682 199.242 65.796 199.399 62.5881 200.533C59.3802 201.667 56.5807 203.727 54.5437 206.452C52.5068 209.178 51.324 212.446 51.1448 215.844C50.9657 219.242 51.7984 222.616 53.5374 225.541C55.2765 228.465 57.8439 230.808 60.9148 232.273C63.9857 233.738 67.4222 234.26 70.7894 233.771C74.1567 233.283 77.3035 231.807 79.8317 229.53C83.2074 226.48 85.2373 222.217 85.4772 217.674C85.7171 213.131 84.1474 208.678 81.1117 205.29V205.25Z" fill="#263238"></path> <path d="M222.602 206.19C223.116 204.132 223.387 202.021 223.412 199.9L232.962 194.9L230.322 185.21L219.542 185.71C218.45 183.899 217.151 182.221 215.672 180.71L218.862 170.4L210.162 165.4L202.882 173.34C200.827 172.844 198.725 172.576 196.612 172.54L191.612 162.99L181.932 165.62L182.442 176.41C180.63 177.502 178.953 178.801 177.442 180.28L167.122 177.09L162.122 185.78L170.122 193.05C169.604 195.1 169.339 197.206 169.332 199.32L159.762 204.32L162.402 214L173.202 213.49C174.272 215.311 175.565 216.99 177.052 218.49L173.842 228.75L182.552 233.75L189.792 225.87C191.849 226.388 193.961 226.653 196.082 226.66L201.082 236.22L210.762 233.59L210.332 224.37L210.262 222.79C212.098 221.709 213.797 220.41 215.322 218.92L225.632 222.12L229.892 214.68L230.612 213.42L222.602 206.19ZM199.732 212.07C197.249 212.755 194.62 212.687 192.176 211.875C189.732 211.063 187.585 209.543 186.006 207.509C184.427 205.475 183.488 203.017 183.307 200.449C183.127 197.88 183.714 195.316 184.993 193.081C186.272 190.846 188.186 189.041 190.492 187.895C192.798 186.75 195.393 186.315 197.946 186.646C200.5 186.977 202.898 188.059 204.836 189.754C206.774 191.45 208.165 193.683 208.832 196.17C209.721 199.485 209.263 203.017 207.558 205.996C205.854 208.974 203.04 211.158 199.732 212.07V212.07Z" fill="#263238"></path> <path d="M333.32 223.231L335.52 209.931L322.06 204.521C321.755 201.686 321.107 198.899 320.13 196.221L329.82 185.431L321.98 174.431L308.62 180.101C306.402 178.323 303.978 176.819 301.4 175.621L300.62 161.131L287.32 158.931L281.87 172.331C279.048 172.662 276.273 173.317 273.6 174.281L262.78 164.591L251.83 172.431L257.51 185.781C255.947 187.732 254.59 189.84 253.46 192.071C253.31 192.381 253.15 192.691 253.01 193.001L238.53 193.801L236.32 207.081L238.5 207.961L249.78 212.511C250.088 215.332 250.736 218.105 251.71 220.771L242 231.631L249.85 242.631L263.2 236.931C265.411 238.724 267.832 240.242 270.41 241.451L271.16 255.871L284.45 258.071L289.89 244.771C292.719 244.462 295.499 243.81 298.17 242.831L308.97 252.521L319.97 244.671L314.29 231.311C316.1 229.091 317.628 226.655 318.84 224.061L333.32 223.231ZM296.02 222.631C293.222 224.638 289.892 225.771 286.45 225.885C283.008 226 279.61 225.091 276.685 223.274C273.76 221.457 271.439 218.813 270.016 215.677C268.594 212.541 268.133 209.054 268.692 205.656C269.252 202.258 270.807 199.103 273.16 196.588C275.513 194.074 278.559 192.314 281.912 191.531C285.266 190.748 288.776 190.977 291.999 192.189C295.222 193.401 298.014 195.542 300.02 198.341C302.708 202.095 303.795 206.763 303.041 211.318C302.287 215.873 299.754 219.943 296 222.631H296.02Z" fill="#263238"></path> <path d="M153.081 124.771H48.5006C41.2602 124.771 35.3906 130.64 35.3906 137.881V282.671C35.3906 289.911 41.2602 295.781 48.5006 295.781H153.081C160.321 295.781 166.191 289.911 166.191 282.671V137.881C166.191 130.64 160.321 124.771 153.081 124.771Z" fill="#1998FF" stroke="#263238" stroke-width="1.10311" stroke-miterlimit="10"></path> <path opacity="0.2" d="M153.081 124.771H48.5006C41.2602 124.771 35.3906 130.64 35.3906 137.881V282.671C35.3906 289.911 41.2602 295.781 48.5006 295.781H153.081C160.321 295.781 166.191 289.911 166.191 282.671V137.881C166.191 130.64 160.321 124.771 153.081 124.771Z" fill="black"></path> <path d="M178.36 150.8V295.59C178.362 297.313 178.024 299.019 177.365 300.61C176.707 302.202 175.742 303.649 174.524 304.867C173.307 306.086 171.861 307.052 170.27 307.712C168.678 308.371 166.973 308.71 165.25 308.71H60.6703C58.9487 308.709 57.2442 308.369 55.6541 307.709C54.064 307.049 52.6195 306.082 51.4031 304.864C50.1866 303.645 49.2221 302.199 48.5644 300.608C47.9068 299.017 47.569 297.312 47.5703 295.59V150.8C47.5703 147.325 48.9502 143.992 51.4066 141.534C53.8631 139.075 57.1951 137.693 60.6703 137.69H165.25C168.727 137.69 172.062 139.072 174.52 141.53C176.979 143.989 178.36 147.323 178.36 150.8Z" fill="white" stroke="#263238" stroke-width="1.10311" stroke-linecap="round" stroke-linejoin="round"></path> <path d="M178.36 150.8V158.55H47.5703V150.8C47.5703 147.325 48.9502 143.992 51.4066 141.534C53.863 139.075 57.1951 137.693 60.6703 137.69H165.25C168.727 137.69 172.062 139.072 174.52 141.53C176.979 143.989 178.36 147.323 178.36 150.8Z" fill="#1998FF" stroke="#263238" stroke-width="1.10311" stroke-miterlimit="10"></path> <path d="M92.0511 167.53H59.8711V172.93H92.0511V167.53Z" fill="#1998FF"></path> <path d="M92.0511 215.92H59.8711V221.32H92.0511V215.92Z" fill="#1998FF"></path> <path d="M92.0511 259.801H59.8711V265.201H92.0511V259.801Z" fill="#1998FF"></path> <path d="M151.261 180.9H59.8711V184.86H151.261V180.9Z" fill="#263238"></path> <path d="M134.781 188.471H59.8711V192.331H134.781V188.471Z" fill="#263238"></path> <path d="M144.591 195.92H59.8711V199.78H144.591V195.92Z" fill="#263238"></path> <path d="M144.591 203.36H59.8711V207.22H144.591V203.36Z" fill="#263238"></path> <path d="M151.261 224.78H59.8711V228.74H151.261V224.78Z" fill="#263238"></path> <path d="M134.781 232.351H59.8711V236.211H134.781V232.351Z" fill="#263238"></path> <path d="M144.591 239.801H59.8711V243.661H144.591V239.801Z" fill="#263238"></path> <path d="M151.261 272.96H59.8711V276.92H151.261V272.96Z" fill="#263238"></path> <path d="M134.781 280.54H59.8711V284.4H134.781V280.54Z" fill="#263238"></path> <path d="M144.591 287.99H59.8711V291.85H144.591V287.99Z" fill="#263238"></path> <path d="M325.771 37.2904V95.8104C325.771 97.8638 325.366 99.8971 324.58 101.794C323.794 103.691 322.642 105.414 321.189 106.866C319.737 108.318 318.013 109.469 316.115 110.254C314.218 111.038 312.184 111.442 310.131 111.44H175.351C173.298 111.442 171.264 111.038 169.367 110.254C167.469 109.469 165.745 108.318 164.292 106.866C162.84 105.414 161.688 103.691 160.902 101.794C160.116 99.8971 159.711 97.8638 159.711 95.8104V37.2904C159.714 33.1432 161.362 29.1667 164.295 26.2342C167.227 23.3017 171.204 21.653 175.351 21.6504H310.131C314.279 21.6504 318.257 23.2982 321.19 26.2312C324.123 29.1643 325.771 33.1424 325.771 37.2904Z" fill="white" stroke="#222221" stroke-width="1.10311" stroke-miterlimit="10"></path> <path d="M325.771 37.2904V38.6304H159.711V37.2904C159.714 33.1432 161.362 29.1667 164.295 26.2342C167.227 23.3017 171.204 21.653 175.351 21.6504H310.131C314.279 21.6504 318.257 23.2982 321.19 26.2312C324.123 29.1643 325.771 33.1424 325.771 37.2904Z" fill="#1998FF" stroke="#263238" stroke-width="1.10311" stroke-miterlimit="10"></path> <path d="M184.111 32.9407C183.775 33.2769 183.348 33.5061 182.882 33.5992C182.416 33.6922 181.933 33.6451 181.495 33.4636C181.056 33.2821 180.681 32.9745 180.417 32.5797C180.153 32.1849 180.012 31.7206 180.012 31.2457C180.012 30.7708 180.153 30.3065 180.417 29.9117C180.681 29.5169 181.056 29.2093 181.495 29.0278C181.933 28.8464 182.416 28.7992 182.882 28.8922C183.348 28.9853 183.775 29.2145 184.111 29.5507C184.557 30.0019 184.808 30.611 184.808 31.2457C184.808 31.8804 184.557 32.4895 184.111 32.9407V32.9407Z" fill="#263238"></path> <path d="M195.23 32.9407C194.895 33.2769 194.467 33.5061 194.001 33.5992C193.536 33.6922 193.053 33.6451 192.614 33.4636C192.175 33.2821 191.8 32.9745 191.536 32.5797C191.272 32.1849 191.131 31.7206 191.131 31.2457C191.131 30.7708 191.272 30.3065 191.536 29.9117C191.8 29.5169 192.175 29.2093 192.614 29.0278C193.053 28.8464 193.536 28.7992 194.001 28.8922C194.467 28.9853 194.895 29.2145 195.23 29.5507C195.676 30.0019 195.927 30.611 195.927 31.2457C195.927 31.8804 195.676 32.4895 195.23 32.9407V32.9407Z" fill="#263238"></path> <path d="M206.351 32.9407C206.016 33.2769 205.588 33.5061 205.122 33.5992C204.657 33.6922 204.174 33.6451 203.735 33.4636C203.296 33.2821 202.921 32.9745 202.657 32.5797C202.393 32.1849 202.252 31.7206 202.252 31.2457C202.252 30.7708 202.393 30.3065 202.657 29.9117C202.921 29.5169 203.296 29.2093 203.735 29.0278C204.174 28.8464 204.657 28.7992 205.122 28.8922C205.588 28.9853 206.016 29.2145 206.351 29.5507C206.797 30.0019 207.048 30.611 207.048 31.2457C207.048 31.8804 206.797 32.4895 206.351 32.9407Z" fill="#263238"></path> <path d="M224.581 49.3906H170.301V96.3106H224.581V49.3906Z" stroke="#263238" stroke-width="1.10311" stroke-linecap="round" stroke-linejoin="round" stroke-dasharray="4.41 4.41"></path> <path d="M295.431 49.3906H232.961V52.6906H295.431V49.3906Z" fill="#263238"></path> <path d="M280.881 56.2207H232.961V59.5107H280.881V56.2207Z" fill="#263238"></path> <path d="M304.311 63.0205H232.961V66.3505H304.311V63.0205Z" fill="#263238"></path> <path d="M293.721 69.6504H232.961V72.9804H293.721V69.6504Z" fill="#263238"></path> <path d="M330.31 182.53H299.76C296.154 182.53 293.23 185.454 293.23 189.06V206.99C293.23 210.597 296.154 213.52 299.76 213.52H330.31C333.917 213.52 336.84 210.597 336.84 206.99V189.06C336.84 185.454 333.917 182.53 330.31 182.53Z" fill="white" stroke="#263238" stroke-width="1.10311" stroke-linecap="round" stroke-linejoin="round"></path> <path d="M307.3 191.851L298.91 197.111L306.7 204.011" stroke="#263238" stroke-width="1.10311" stroke-linecap="round" stroke-linejoin="round"></path> <path d="M322.58 204.511L330.12 198.091L321.42 192.391" stroke="#263238" stroke-width="1.10311" stroke-linecap="round" stroke-linejoin="round"></path> <path d="M311.381 208.471L317.571 189.051" stroke="#263238" stroke-width="1.10311" stroke-linecap="round" stroke-linejoin="round"></path> <path d="M246.86 377.469C246.86 377.469 217.86 385.779 213.81 387.219C210.13 388.519 200.15 392.019 192.66 390.929C191.937 390.825 191.222 390.672 190.52 390.469C182.93 388.209 179.52 386.099 178.52 381.329C177.52 376.559 181.3 373.039 184.94 370.789C188.58 368.539 208.32 366.189 208.32 366.189L213.09 367.589L246.86 377.469Z" fill="#1998FF"></path> <path d="M192.66 390.929C191.937 390.825 191.222 390.672 190.52 390.469C182.93 388.209 179.52 386.099 178.52 381.329C177.52 376.559 181.3 373.039 184.94 370.789C188.58 368.539 208.32 366.189 208.32 366.189L213.09 367.589C208.77 369.589 192.69 370.679 189.18 372.699C185.67 374.719 183.98 378.519 186.05 383.699C187.16 386.399 190.12 389.049 192.66 390.929Z" fill="white"></path> <path d="M242.501 378.649C242.501 378.649 220.721 384.289 212.081 387.899C203.441 391.509 186.971 393.089 181.081 385.649C175.191 378.209 180.401 371.789 186.271 370.359C192.141 368.929 204.011 366.679 210.491 367.589" stroke="#263238" stroke-width="1.10311" stroke-linecap="round" stroke-linejoin="round"></path> <path d="M193.09 390.54C193.09 390.54 182.01 384.46 185.69 375.94C188.41 369.66 203.19 371.02 210.51 367.59" stroke="#263238" stroke-width="1.10311" stroke-linecap="round" stroke-linejoin="round"></path> <path d="M335.19 392.28C334.89 395.28 333.84 398.09 330.84 399.86C328.84 401.04 326 401.74 321.93 401.7C311.76 401.57 292.64 394.3 292.64 394.3L274.74 384.4L284.05 369.67L286.6 365.67L293.18 367.15C293.18 367.15 298.63 370.24 304.11 372.7C309.59 375.16 322.9 375.7 327.59 379.47C332.28 383.24 335.7 387.34 335.19 392.28Z" fill="#1998FF"></path> <path d="M335.191 392.28C334.891 395.28 333.841 398.09 330.841 399.86C331.705 396.911 331.528 393.754 330.341 390.92C328.341 386.43 321.831 382.47 313.271 381.81C304.711 381.15 298.161 377.15 294.731 375.36C292.051 373.97 286.401 370.93 284.051 369.67L286.601 365.67L293.181 367.15C293.181 367.15 298.631 370.24 304.111 372.7C309.591 375.16 322.901 375.7 327.591 379.47C332.281 383.24 335.701 387.34 335.191 392.28Z" fill="white"></path> <path d="M278.71 387.179C291.594 394.669 305.835 399.533 320.61 401.489C323.87 401.879 327.66 401.939 329.84 399.489C330.42 398.782 330.851 397.965 331.109 397.087C331.367 396.209 331.445 395.288 331.34 394.379C330.95 389.779 327.08 386.139 322.84 384.309C318.6 382.479 313.93 382.059 309.42 381.049C304.934 380.038 300.598 378.452 296.52 376.329C293.28 374.639 290.15 372.589 286.58 371.829C283.01 371.069 278.76 371.989 276.85 375.109" stroke="#263238" stroke-width="1.10311" stroke-linecap="round" stroke-linejoin="round"></path> <path d="M328.64 400.74C330.316 399.938 331.78 398.755 332.918 397.286C334.055 395.817 334.833 394.103 335.19 392.28C335.84 387.95 333.37 383.59 329.9 380.93C326.43 378.27 322.08 377.01 317.79 376.12C313.5 375.23 309.11 374.63 305 373C298.73 370.54 292.54 365.7 286 367.43" stroke="#263238" stroke-width="1.10311" stroke-linecap="round" stroke-linejoin="round"></path> <path d="M298.911 232.26L268.621 220.74L268.241 220.59C268.241 220.59 268.351 219.79 268.441 218.59C268.631 216.17 268.731 212.23 267.591 210.9C265.901 208.9 261.121 210.58 256.451 208.44C251.781 206.3 243.151 210.13 243.151 210.13C243.151 210.13 236.911 208.98 234.151 213.48C232.751 217.11 233.231 222.48 233.231 222.48L232.661 222.68C229.051 224.03 209.411 231.42 205.261 234.39C200.671 237.64 195.591 271.01 193.961 280.81C192.331 290.61 189.431 299.44 190.901 302.81C192.371 306.18 213.471 322.43 225.611 326.62C237.751 330.81 280.801 329.62 280.801 329.62C280.801 329.62 281.501 329.43 282.751 329.03C290.031 326.69 315.861 317.03 329.571 294.35C329.591 294.39 316.311 250.86 298.911 232.26ZM217.071 288.39C214.841 289.97 216.071 296.09 216.071 296.09L212.281 292.75L221.801 269.34L225.861 287.34C225.861 287.34 219.301 286.82 217.071 288.39V288.39ZM293.231 303.26C292.181 303.8 296.231 292.55 294.311 290C292.391 287.45 286.601 287.69 286.601 287.69L287.091 284.62L290.521 267.02L291.661 265.67C291.661 265.67 303.441 285.86 305.551 292.98C305.551 293 292.711 303.26 293.231 303.26Z" fill="#1998FF"></path> <path d="M241.721 159.25L226.081 175.85C226.081 175.85 223.931 177.76 224.781 182.57C225.631 187.38 227.631 191.57 229.141 191.85C230.336 192.059 231.547 192.166 232.761 192.17C232.761 192.17 236.111 199.43 238.491 202.28C238.491 202.28 239.311 213.49 238.871 216.6C238.871 216.6 244.491 221.51 249.781 222.13C255.071 222.75 263.241 214.65 263.241 214.65L265.241 204.73C265.241 204.73 270.041 197.45 270.361 195.51C270.681 193.57 272.881 194.07 273.961 193.11C275.041 192.15 277.531 187.88 277.961 183.84C278.391 179.8 278.401 175.16 273.711 176.52C269.641 175.43 272.191 166.83 272.191 166.83L265.041 160.53L241.721 159.25Z" fill="white"></path> <path opacity="0.5" d="M268.62 220.739C268.384 221.357 268.113 221.962 267.81 222.549C265.23 227.409 253.99 236.679 253.99 236.679L250.59 226.229L248.73 236.679C244.98 235.039 233.54 225.129 233.54 225.129C233.54 225.129 233.15 224.199 232.68 222.749L233.25 222.549C233.25 222.549 232.77 217.139 234.17 213.549C236.91 209.049 243.17 210.199 243.17 210.199C243.17 210.199 251.8 206.369 256.47 208.509C261.14 210.649 265.92 208.989 267.61 210.969C269.3 212.949 268.26 220.629 268.26 220.629L268.62 220.739Z" fill="white"></path> <path opacity="0.2" d="M298.91 232.26L268.62 220.74L268.24 220.59C268.24 220.59 268.35 219.79 268.44 218.59L267.81 222.52L263.33 228.6C268.119 230.363 272.795 232.42 277.33 234.76C279.501 235.923 281.273 237.712 282.414 239.895C283.555 242.078 284.014 244.553 283.73 247L278.15 294.75L275.86 321.86L282.77 329.03C290.05 326.69 315.88 317.03 329.59 294.35C329.59 294.39 316.31 250.86 298.91 232.26ZM293.23 303.26C292.18 303.8 296.23 292.55 294.31 290C292.39 287.45 286.6 287.69 286.6 287.69L287.09 284.62L290.52 267.02L291.66 265.67C291.66 265.67 303.44 285.86 305.55 292.98C305.55 293 292.71 303.26 293.23 303.26Z" fill="black"></path> <path opacity="0.2" d="M227.87 290L223.16 274.26C223.16 274.26 214.71 245.45 208.92 238.35L210.44 258.61C210.44 258.61 205.44 282.81 200.87 290C196.3 297.19 195.28 299 200.87 299C206.46 299 220.07 309.84 220.07 309.84L219.02 300.84L227.87 290ZM216 296.09L212.21 292.75L221.73 269.34L225.79 287.34C225.79 287.34 219.27 286.85 217.04 288.42C214.81 289.99 216 296.09 216 296.09Z" fill="black"></path> <path d="M238.49 202.279C238.49 202.279 239.35 210.769 238.49 214.649" stroke="#263238" stroke-width="1.10311" stroke-linecap="round" stroke-linejoin="round"></path> <path d="M264.111 213.509C264.121 210.779 264.436 208.059 265.051 205.399" stroke="#263238" stroke-width="1.10311" stroke-linecap="round" stroke-linejoin="round"></path> <path d="M266.381 165.579C266.381 165.579 271.521 172.029 271.251 176.909C270.981 181.789 270.601 187.569 270.731 193.229C270.861 198.889 261.641 210.749 256.901 211.799C252.161 212.849 248.081 213.119 245.051 210.089C242.021 207.059 238.991 202.849 235.051 197.449C231.111 192.049 232.051 180.199 232.051 180.199" stroke="#263238" stroke-width="1.10311" stroke-linecap="round" stroke-linejoin="round"></path> <path d="M254 184.71C253.687 186.482 253.553 188.281 253.6 190.08C253.497 191.596 253.968 193.095 254.92 194.28C255.49 194.86 256.31 195.33 256.42 196.13C256.417 196.49 256.317 196.843 256.13 197.151C255.944 197.459 255.678 197.711 255.36 197.88C254.718 198.203 254.1 198.571 253.51 198.98" stroke="#263238" stroke-width="1.10311" stroke-linecap="round" stroke-linejoin="round"></path> <path d="M245.871 199.6C245.871 199.6 246.461 203.43 251.591 204.23" stroke="#263238" stroke-width="1.10311" stroke-linecap="round" stroke-linejoin="round"></path> <path d="M246.4 187.63C246.4 188.74 245.92 189.63 245.33 189.63C244.74 189.63 244.26 188.74 244.26 187.63C244.26 186.52 244.74 185.63 245.33 185.63C245.92 185.63 246.4 186.53 246.4 187.63Z" fill="#263238"></path> <path d="M261.71 188.109C261.71 189.219 261.23 190.109 260.64 190.109C260.05 190.109 259.57 189.209 259.57 188.109C259.57 187.009 260.05 186.109 260.64 186.109C261.23 186.109 261.71 186.999 261.71 188.109Z" fill="#263238"></path> <path d="M258.621 183.259C258.621 183.259 263.621 178.259 267.811 183.839" stroke="#263238" stroke-width="2.20621" stroke-linecap="round" stroke-linejoin="round"></path> <path d="M248.091 183.359C248.091 183.359 244.931 179.819 239.951 183.359" stroke="#263238" stroke-width="2.20621" stroke-linecap="round" stroke-linejoin="round"></path> <path d="M238.87 206.999C238.87 206.999 241.92 215.399 248.73 217.789C255.54 220.179 264.58 207.789 264.58 207.789L264.11 206.179C264.11 206.179 258.18 213.879 251.59 212.569C245 211.259 238.49 202.319 238.49 202.319L238.87 206.999Z" fill="#263238"></path> <path d="M232.76 191.85C232.76 191.85 228.7 193.28 227.62 190.12C226.54 186.96 222.84 178.63 226.08 175.85C229.32 173.07 231.92 179.52 231.92 179.52" stroke="#263238" stroke-width="1.10311" stroke-linecap="round" stroke-linejoin="round"></path> <path d="M270.721 193.57C270.721 193.57 274.491 194.33 275.571 191.17C276.651 188.01 280.351 179.68 277.111 176.9C273.871 174.12 271.271 180.57 271.271 180.57" stroke="#263238" stroke-width="1.10311" stroke-linecap="round" stroke-linejoin="round"></path> <path d="M231.921 187.63C233.331 187.407 234.604 186.656 235.481 185.53C236.017 184.54 236.356 183.457 236.481 182.34C236.852 180.213 237.04 178.058 237.041 175.9C236.997 175.056 237.075 174.211 237.271 173.39C237.571 172.563 238.034 171.805 238.631 171.16C240.041 169.5 241.751 168.1 243.101 166.38C243.825 165.568 244.375 164.617 244.719 163.586C245.063 162.554 245.193 161.463 245.101 160.38C248.195 162.93 251.81 164.772 255.692 165.776C259.574 166.78 263.629 166.921 267.571 166.19C274.721 164.79 281.571 158.52 280.741 150.64C280.584 149.318 280.018 148.079 279.121 147.097C278.224 146.114 277.042 145.436 275.741 145.16C272.211 144.28 269.041 146.16 265.841 147.37C260.011 149.57 254.301 145.79 248.411 145.16C243.411 144.61 237.181 145.24 234.561 150.25C234.561 150.25 225.561 151.31 221.561 158.75C217.561 166.19 225.131 176.48 225.131 176.48C225.131 176.48 228.131 172.8 232.061 180.24L231.921 187.63Z" fill="#263238"></path> <path d="M267.001 163.68C267.001 163.68 264.661 175.88 270.771 181.79C270.771 181.79 272.111 178.12 273.461 177.22C274.434 175.055 274.846 172.679 274.659 170.313C274.472 167.947 273.692 165.665 272.391 163.68C267.871 156.58 267.001 163.68 267.001 163.68Z" fill="#263238"></path> <path opacity="0.2" d="M278.141 149.8C277.605 151.464 276.695 152.985 275.482 154.244C274.269 155.504 272.785 156.471 271.141 157.07C262.661 160.53 254.431 156.7 245.931 155.95C239.001 155.33 231.351 161.59 230.861 168.71" stroke="white" stroke-width="1.10311" stroke-linecap="round" stroke-linejoin="round"></path> <path opacity="0.2" d="M225.631 166.83C225.735 164.02 226.636 161.298 228.23 158.982C229.824 156.666 232.044 154.851 234.631 153.75" stroke="white" stroke-width="1.10311" stroke-linecap="round" stroke-linejoin="round"></path> <path d="M236.531 213.51C240.26 217.396 244.76 220.461 249.741 222.51C249.741 222.51 259.891 219.56 265.051 212.51" stroke="#263238" stroke-width="1.10311" stroke-linecap="round" stroke-linejoin="round"></path> <path d="M246.904 195.772C251.412 193.704 253.39 188.374 251.322 183.866C249.255 179.358 243.924 177.38 239.416 179.448C234.908 181.515 232.93 186.846 234.998 191.354C237.066 195.862 242.396 197.84 246.904 195.772Z" stroke="#263238" stroke-width="1.10311" stroke-linecap="round" stroke-linejoin="round"></path> <path d="M264.305 196.563C269.228 195.958 272.728 191.478 272.124 186.555C271.519 181.633 267.039 178.132 262.116 178.737C257.194 179.341 253.693 183.822 254.298 188.744C254.902 193.667 259.382 197.167 264.305 196.563Z" stroke="#263238" stroke-width="1.10311" stroke-linecap="round" stroke-linejoin="round"></path> <path d="M238.491 210.159C237.582 210.398 236.729 210.818 235.985 211.393C235.241 211.969 234.621 212.689 234.161 213.509C232.571 216.309 233.531 225.119 233.531 225.119C233.531 225.119 241.741 233.239 248.731 236.669L250.791 225.079L253.991 236.669C253.991 236.669 264.811 229.019 267.811 222.549C267.811 222.549 268.811 214.999 267.811 212.549C267.584 211.869 267.151 211.275 266.573 210.851C265.995 210.427 265.299 210.192 264.581 210.179" stroke="#263238" stroke-width="1.10311" stroke-linecap="round" stroke-linejoin="round"></path> <path d="M225.63 287.7C225.63 287.7 222.42 266.2 218.15 257.43" stroke="#263238" stroke-width="1.10311" stroke-linecap="round" stroke-linejoin="round"></path> <path d="M208.92 238.35C211.406 241.883 213.625 245.597 215.56 249.46" stroke="#263238" stroke-width="1.10311" stroke-linecap="round" stroke-linejoin="round"></path> <path d="M293.23 254.399C294.093 250.804 295.274 247.294 296.76 243.909" stroke="#263238" stroke-width="1.10311" stroke-linecap="round" stroke-linejoin="round"></path> <path d="M286.6 287.699C286.6 287.699 288.91 272.959 291.67 260.819" stroke="#263238" stroke-width="1.10311" stroke-linecap="round" stroke-linejoin="round"></path> <path d="M290.52 267C292.752 264.039 295.892 261.89 299.46 260.88" stroke="#263238" stroke-width="1.10311" stroke-linecap="round" stroke-linejoin="round"></path> <path d="M268.25 220.59C268.25 220.59 286.88 228.04 298.91 232.27C298.91 232.27 313.71 246.18 329.58 294.39C329.58 294.39 315.04 318.85 287.38 326.69" stroke="#263238" stroke-width="1.10311" stroke-linecap="round" stroke-linejoin="round"></path> <path d="M292.18 304.13L305.55 293C305.55 293 312.62 287.63 319.97 291.3" stroke="#263238" stroke-width="1.10311" stroke-linecap="round" stroke-linejoin="round"></path> <path d="M291.67 265.67C291.67 265.67 302.72 282 305.55 293" stroke="#263238" stroke-width="1.10311" stroke-linecap="round" stroke-linejoin="round"></path> <path d="M216.151 296.709L212.241 292.999C212.241 292.999 206.441 291.999 199.861 296.389" stroke="#263238" stroke-width="1.10311" stroke-linecap="round" stroke-linejoin="round"></path> <path d="M212.24 293C212.24 293 217.1 277 221.89 268.81" stroke="#263238" stroke-width="1.10311" stroke-linecap="round" stroke-linejoin="round"></path> <path d="M233.25 222.55C233.25 222.55 206.44 232.61 203.81 235.55C201.18 238.49 191.19 294.74 190.92 301.18C190.69 306.94 211.57 319.87 221.92 325.32" stroke="#263238" stroke-width="1.10311" stroke-linecap="round" stroke-linejoin="round"></path> <path d="M253.3 241.559C253.3 241.909 253.196 242.251 253.001 242.542C252.807 242.834 252.531 243.06 252.207 243.194C251.884 243.328 251.528 243.363 251.184 243.295C250.841 243.227 250.526 243.058 250.278 242.811C250.031 242.563 249.862 242.248 249.794 241.904C249.725 241.561 249.761 241.205 249.895 240.882C250.028 240.558 250.255 240.282 250.546 240.087C250.837 239.893 251.18 239.789 251.53 239.789C251.763 239.788 251.993 239.833 252.209 239.921C252.424 240.01 252.62 240.14 252.784 240.305C252.949 240.469 253.079 240.665 253.168 240.88C253.256 241.096 253.301 241.326 253.3 241.559V241.559Z" fill="#263238"></path> <path d="M284.321 335.78H223.321C222.941 335.78 222.578 335.629 222.309 335.361C222.041 335.093 221.891 334.729 221.891 334.35C221.891 333.971 222.041 333.607 222.309 333.339C222.578 333.071 222.941 332.92 223.321 332.92H284.321C284.7 332.92 285.064 333.071 285.332 333.339C285.6 333.607 285.751 333.971 285.751 334.35C285.751 334.729 285.6 335.093 285.332 335.361C285.064 335.629 284.7 335.78 284.321 335.78Z" fill="#263238"></path> <path d="M286.461 331L294.631 292.6C294.758 292.005 294.75 291.388 294.608 290.796C294.465 290.205 294.193 289.652 293.809 289.179C293.425 288.707 292.941 288.326 292.391 288.064C291.841 287.803 291.24 287.669 290.631 287.67H219.331C218.728 287.67 218.132 287.804 217.586 288.062C217.041 288.321 216.559 288.697 216.177 289.163C215.794 289.63 215.52 290.176 215.373 290.762C215.227 291.347 215.213 291.958 215.331 292.55L222.661 329.67C222.841 330.582 223.326 331.405 224.037 332.003C224.748 332.601 225.642 332.939 226.571 332.96L282.361 334.24C283.315 334.261 284.246 333.949 284.994 333.358C285.743 332.766 286.261 331.933 286.461 331V331Z" fill="white" stroke="#263238" stroke-width="1.10311" stroke-linecap="round" stroke-linejoin="round"></path> <path d="M260.441 309.83C260.439 310.955 260.103 312.054 259.477 312.988C258.85 313.923 257.961 314.65 256.921 315.08C255.881 315.509 254.737 315.62 253.634 315.399C252.531 315.179 251.518 314.636 250.724 313.84C249.929 313.044 249.388 312.03 249.169 310.926C248.95 309.823 249.064 308.679 249.495 307.64C249.926 306.601 250.655 305.713 251.59 305.088C252.526 304.463 253.626 304.13 254.751 304.13C255.499 304.13 256.239 304.277 256.93 304.564C257.621 304.851 258.249 305.271 258.778 305.8C259.306 306.329 259.725 306.958 260.01 307.649C260.296 308.341 260.442 309.082 260.441 309.83Z" fill="#263238"></path> <path d="M271.631 291.34H280.101" stroke="#263238" stroke-width="1.10311" stroke-linecap="round" stroke-linejoin="round"></path> <path d="M231.18 291.34H263.33" stroke="#263238" stroke-width="1.10311" stroke-linecap="round" stroke-linejoin="round"></path> <path d="M286.6 371.769L280.1 388.829C280.1 388.829 263.52 384.649 242.29 380.299C220.08 375.749 196.89 369.859 184.86 348.749C183.4 346.179 182.42 343.139 183.11 340.259C184.84 332.969 194.33 330.989 200.58 330.259C204.51 329.834 208.458 329.614 212.41 329.599C214.41 329.599 221.06 328.509 222.67 329.699C225.089 331.464 227.671 332.994 230.38 334.269C233.93 335.779 285.75 332.919 285.75 332.919C286.652 330.953 287.204 328.845 287.38 326.689C295.53 322.549 314.38 319.049 322.38 320.599C334.91 323.029 342.22 330.339 340.83 337.999C339.44 345.659 311.76 366.199 286.6 371.769Z" fill="#263238"></path> <path d="M286.601 371.769C286.601 371.769 270.831 367.589 257.951 358.889C245.071 350.189 235.011 340.089 217.061 342.179" stroke="white" stroke-width="1.10311" stroke-linecap="round" stroke-linejoin="round"></path> <path d="M255 356.839C263.14 354.499 269.11 349.229 275.64 344.179C282.528 338.651 289.924 333.79 297.73 329.659" stroke="white" stroke-width="1.10311" stroke-linecap="round" stroke-linejoin="round"></path> <path d="M252.131 189.05H254.521" stroke="#263238" stroke-width="1.10311" stroke-linecap="round" stroke-linejoin="round"></path> </svg> 