<?xml version="1.0" encoding="UTF-8"?> <svg xmlns="http://www.w3.org/2000/svg" width="369" height="357" viewBox="0 0 369 357" fill="none"> <path d="M35.8302 93.4297H262.5C265.33 93.4297 268.044 94.5539 270.045 96.5549C272.046 98.5559 273.17 101.27 273.17 104.1V251.1C273.17 252.632 272.868 254.15 272.282 255.566C271.695 256.981 270.836 258.268 269.752 259.352C268.668 260.435 267.382 261.295 265.966 261.881C264.55 262.468 263.033 262.77 261.5 262.77H36.8302C35.2976 262.77 33.7801 262.468 32.3642 261.881C30.9484 261.295 29.6619 260.435 28.5782 259.352C27.4946 258.268 26.6349 256.981 26.0485 255.566C25.462 254.15 25.1602 252.632 25.1602 251.1V104.1C25.1602 101.27 26.2843 98.5559 28.2853 96.5549C30.2863 94.5539 33.0003 93.4297 35.8302 93.4297Z" fill="white" stroke="#2E353A" stroke-linecap="round" stroke-linejoin="round"></path> <path d="M118.79 110.1H104.83V119.27H118.79V110.1Z" fill="#2E353A"></path> <path d="M73.5596 166.67H60.5996V179.53H73.5596V166.67Z" fill="#2E353A"></path> <path d="M130.82 121.47H117.76V134.33H130.82V121.47Z" fill="#2E353A"></path> <path d="M102.62 110.1H88.6602V119.27H102.62V110.1Z" fill="#2E353A"></path> <path d="M146.08 121.47H133.02V134.33H146.08V121.47Z" fill="#2E353A"></path> <path d="M134.95 110.1H120.99V119.27H134.95V110.1Z" fill="#2E353A"></path> <path d="M65.7299 151.6H41.1699V164.46H65.7299V151.6Z" fill="#2E353A"></path> <path d="M100.29 121.47H87.2305V134.33H100.29V121.47Z" fill="#2E353A"></path> <path d="M58.3999 166.67H41.1699V179.53H58.3999V166.67Z" fill="#2E353A"></path> <path d="M151.12 110.1H137.16V119.27H151.12V110.1Z" fill="#2E353A"></path> <path d="M69.7592 121.47H56.6992V134.33H69.7592V121.47Z" fill="#2E353A"></path> <path d="M70.2901 110.1H56.3301V119.27H70.2901V110.1Z" fill="#2E353A"></path> <path d="M86.46 110.1H72.5V119.27H86.46V110.1Z" fill="#2E353A"></path> <path d="M85.019 121.47H71.959V134.33H85.019V121.47Z" fill="#2E353A"></path> <path d="M115.55 121.47H102.49V134.33H115.55V121.47Z" fill="#2E353A"></path> <path d="M215.79 110.1H201.83V119.27H215.79V110.1Z" fill="#2E353A"></path> <path d="M231.95 110.1H217.99V119.27H231.95V110.1Z" fill="#2E353A"></path> <path d="M222.41 121.47H209.35V134.33H222.41V121.47Z" fill="#2E353A"></path> <path d="M237.679 121.47H224.619V134.33H237.679V121.47Z" fill="#2E353A"></path> <path d="M261.83 166.67H242.6V179.53H261.83V166.67Z" fill="#2E353A"></path> <path d="M248.12 110.1H234.16V119.27H248.12V110.1Z" fill="#2E353A"></path> <path d="M54.4999 121.47H41.1699V134.33H54.4999V121.47Z" fill="#2E353A"></path> <path d="M167.29 110.1H153.33V119.27H167.29V110.1Z" fill="#2E353A"></path> <path d="M183.45 110.1H169.49V119.27H183.45V110.1Z" fill="#2E353A"></path> <path d="M176.621 121.47H163.561V134.33H176.621V121.47Z" fill="#2E353A"></path> <path d="M207.15 121.47H194.09V134.33H207.15V121.47Z" fill="#2E353A"></path> <path d="M161.349 121.47H148.289V134.33H161.349V121.47Z" fill="#2E353A"></path> <path d="M191.88 121.47H178.82V134.33H191.88V121.47Z" fill="#2E353A"></path> <path d="M199.62 110.1H185.66V119.27H199.62V110.1Z" fill="#2E353A"></path> <path d="M179.73 166.67H166.77V179.53H179.73V166.67Z" fill="#2E353A"></path> <path d="M247.73 151.6H234.77V164.46H247.73V151.6Z" fill="#2E353A"></path> <path d="M232.56 151.6H219.6V164.46H232.56V151.6Z" fill="#2E353A"></path> <path d="M240.39 166.67H227.43V179.53H240.39V166.67Z" fill="#2E353A"></path> <path d="M225.23 166.67H212.27V179.53H225.23V166.67Z" fill="#2E353A"></path> <path d="M194.89 166.67H181.93V179.53H194.89V166.67Z" fill="#2E353A"></path> <path d="M210.06 166.67H197.1V179.53H210.06V166.67Z" fill="#2E353A"></path> <path d="M217.39 151.6H204.43V164.46H217.39V151.6Z" fill="#2E353A"></path> <path d="M202.23 151.6H189.27V164.46H202.23V151.6Z" fill="#2E353A"></path> <path d="M261.84 110.1H250.33V119.27H261.84V110.1Z" fill="#2E353A"></path> <path d="M54.1299 110.1H41.1699V119.27H54.1299V110.1Z" fill="#2E353A"></path> <path d="M261.84 181.729H41.1699V195.099H261.84V181.729Z" fill="#2E353A"></path> <path d="M261.831 121.47H239.881V134.33H261.831V121.47Z" fill="#2E353A"></path> <path d="M261.83 151.6H249.93V164.46H261.83V151.6Z" fill="#2E353A"></path> <path d="M246.27 149.3H244.06V136.54H231.1V149.3H228.9V136.54H215.94V149.3H213.73V136.54H200.77V149.3H198.56V136.54H185.6V149.3H183.4V136.54H170.44V149.3H168.23V136.54H155.27V149.3H153.06V136.54H140.1V149.3H137.9V136.54H124.94V149.3H122.73V136.54H109.77V149.3H107.56V136.54H94.5999V149.3H92.3999V136.54H79.4399V149.3H77.2299V136.54H64.2699V149.3H62.0599V136.54H41.1699V149.4H261.83V136.54H246.27V149.3Z" fill="#2E353A"></path> <path d="M141.56 151.6H128.6V164.46H141.56V151.6Z" fill="#2E353A"></path> <path d="M187.06 151.6H174.1V164.46H187.06V151.6Z" fill="#2E353A"></path> <path d="M111.23 151.6H98.2695V164.46H111.23V151.6Z" fill="#2E353A"></path> <path d="M119.06 166.67H106.1V179.53H119.06V166.67Z" fill="#2E353A"></path> <path d="M126.39 151.6H113.43V164.46H126.39V151.6Z" fill="#2E353A"></path> <path d="M96.0596 151.6H83.0996V164.46H96.0596V151.6Z" fill="#2E353A"></path> <path d="M88.7295 166.67H75.7695V179.53H88.7295V166.67Z" fill="#2E353A"></path> <path d="M103.89 166.67H90.9297V179.53H103.89V166.67Z" fill="#2E353A"></path> <path d="M156.73 151.6H143.77V164.46H156.73V151.6Z" fill="#2E353A"></path> <path d="M164.56 166.67H151.6V179.53H164.56V166.67Z" fill="#2E353A"></path> <path d="M171.89 151.6H158.93V164.46H171.89V151.6Z" fill="#2E353A"></path> <path d="M134.23 166.67H121.27V179.53H134.23V166.67Z" fill="#2E353A"></path> <path d="M149.39 166.67H136.43V179.53H149.39V166.67Z" fill="#2E353A"></path> <path d="M80.8897 151.6H67.9297V164.46H80.8897V151.6Z" fill="#2E353A"></path> <path d="M287.33 1.42969H9.6699C8.30826 1.43076 6.96511 1.74494 5.74428 2.34796C4.52344 2.95098 3.45763 3.82667 2.62925 4.90734C1.80086 5.98801 1.23209 7.24471 0.966908 8.58028C0.701725 9.91585 0.747226 11.2945 1.0999 12.6097L21.3999 88.1897C21.9058 90.0763 23.0197 91.7435 24.569 92.9331C26.1183 94.1226 28.0166 94.7682 29.9699 94.7697H58.3099V99.9997H240V94.7997H267C268.953 94.7982 270.852 94.1526 272.401 92.9631C273.95 91.7735 275.064 90.1063 275.57 88.2197L295.87 12.6397C296.227 11.325 296.278 9.94569 296.017 8.60851C295.756 7.27132 295.19 6.01212 294.365 4.92836C293.539 3.8446 292.475 2.96535 291.255 2.35866C290.035 1.75197 288.692 1.43411 287.33 1.42969V1.42969Z" fill="#2E353A" stroke="#2E353A" stroke-linecap="round" stroke-linejoin="round"></path> <path d="M255.93 88.0995H41.0701L19.5801 10.7695H277.41L255.93 88.0995Z" fill="#1998FF" stroke="#2E353A" stroke-linecap="round" stroke-linejoin="round"></path> <path d="M55.3291 54.1602V55.1602H51.5391V54.1602H55.3291Z" fill="#2E353A"></path> <path d="M60.05 54.1602V55.1602H56.25V54.1602H60.05Z" fill="#2E353A"></path> <path d="M64.77 54.1602V55.1602H61V54.1602H64.77Z" fill="#2E353A"></path> <path d="M69.4794 54.1602V55.1602H65.6895V54.1602H69.4794Z" fill="#2E353A"></path> <path d="M74.2004 54.1602V55.1602H70.4004V54.1602H74.2004Z" fill="#2E353A"></path> <path d="M78.9191 54.1602V55.1602H75.1191V54.1602H78.9191Z" fill="#2E353A"></path> <path d="M83.6299 54.1602V55.1602H79.8398V54.1602H83.6299Z" fill="#2E353A"></path> <path d="M88.2991 59.43L84.1191 48.29H85.1191L89.2991 59.43H88.2991Z" fill="#2E353A"></path> <path d="M51.5107 37.9395V38.9395H47.7207V37.9395H51.5107Z" fill="#2E353A"></path> <path d="M56.2294 37.9395V38.9395H52.4395V37.9395H56.2294Z" fill="#2E353A"></path> <path d="M60.9992 37.9395V38.9395H57.1992V37.9395H60.9992Z" fill="#2E353A"></path> <path d="M65.6691 37.9395V38.9395H61.8691V37.9395H65.6691Z" fill="#2E353A"></path> <path d="M70.3799 37.9395V38.9395H66.5898V37.9395H70.3799Z" fill="#2E353A"></path> <path d="M78.3605 37.9395V38.9395H74.5605V37.9395H78.3605Z" fill="#2E353A"></path> <path d="M83.0693 37.9395V38.9395H79.2793V37.9395H83.0693Z" fill="#2E353A"></path> <path d="M87.79 37.9395V38.9395H84V37.9395H87.79Z" fill="#2E353A"></path> <path d="M92.509 37.9395V38.9395H88.709V37.9395H92.509Z" fill="#2E353A"></path> <path d="M97.2197 37.9395V38.9395H93.4297V37.9395H97.2197Z" fill="#2E353A"></path> <path d="M101.94 37.9395V38.9395H98.1504V37.9395H101.94Z" fill="#2E353A"></path> <path d="M106.659 37.9395V38.9395H102.859V37.9395H106.659Z" fill="#2E353A"></path> <path d="M114.63 37.9395V38.9395H110.84V37.9395H114.63Z" fill="#2E353A"></path> <path d="M119.351 37.9395V38.9395H115.551V37.9395H119.351Z" fill="#2E353A"></path> <path d="M124.07 37.9395V38.9395H120.27V37.9395H124.07Z" fill="#2E353A"></path> <path d="M131.999 37.9395V38.9395H128.209V37.9395H131.999Z" fill="#2E353A"></path> <path d="M136.76 37.9395V38.9395H133V37.9395H136.76Z" fill="#2E353A"></path> <path d="M141.48 37.9395V38.9395H137.68V37.9395H141.48Z" fill="#2E353A"></path> <path d="M159.22 37.9395V38.9395H155.43V37.9395H159.22Z" fill="#2E353A"></path> <path d="M163.941 37.9395V38.9395H160.141V37.9395H163.941Z" fill="#2E353A"></path> <path d="M168.659 37.9395V38.9395H164.859V37.9395H168.659Z" fill="#2E353A"></path> <path d="M173.37 37.9395V38.9395H169.58V37.9395H173.37Z" fill="#2E353A"></path> <path d="M178.089 37.9395V38.9395H174.289V37.9395H178.089Z" fill="#2E353A"></path> <path d="M186.06 37.9395V38.9395H182.27V37.9395H186.06Z" fill="#2E353A"></path> <path d="M190.78 37.9395V38.9395H187V37.9395H190.78Z" fill="#2E353A"></path> <path d="M195.499 37.9395V38.9395H191.699V37.9395H195.499Z" fill="#2E353A"></path> <path d="M203.47 37.9395V38.9395H199.68V37.9395H203.47Z" fill="#2E353A"></path> <path d="M211.45 37.9395V38.9395H207.65V37.9395H211.45Z" fill="#2E353A"></path> <path d="M274.69 202.29L263.99 243.57L274.11 246.54L274.69 202.29Z" fill="white" stroke="#2E353A" stroke-linecap="round" stroke-linejoin="round"></path> <path d="M279.49 158.66C278.282 156.805 277.841 154.554 278.26 152.38C278.81 148.31 283.72 147.38 283.72 147.38C283.72 147.38 284.79 146.57 288.72 148.06C292.65 149.55 323.04 153.67 342.46 156.3C361.88 158.93 368.17 157.23 367.9 163.9C367.63 170.57 350.59 230.43 350.33 232.31C350.07 234.19 279.49 158.66 279.49 158.66Z" fill="white" stroke="#2E353A" stroke-miterlimit="10"></path> <path d="M361.175 169.736L279.482 158.662L266.282 256.041L347.974 267.116L361.175 169.736Z" fill="white" stroke="#2E353A" stroke-linecap="round" stroke-linejoin="round"></path> <path d="M345.99 189.16L350.74 189.81" stroke="#2E353A" stroke-width="0.5" stroke-linecap="round" stroke-linejoin="round"></path> <path d="M316.24 185.13L342.23 188.66" stroke="#2E353A" stroke-width="0.5" stroke-linecap="round" stroke-linejoin="round"></path> <path d="M284.74 180.86L312.48 184.62" stroke="#2E353A" stroke-width="0.5" stroke-linecap="round" stroke-linejoin="round"></path> <path d="M338.551 196.97L349.571 198.47" stroke="#2E353A" stroke-width="0.5" stroke-linecap="round" stroke-linejoin="round"></path> <path d="M283.57 189.52L327.28 195.44" stroke="#2E353A" stroke-width="0.5" stroke-linecap="round" stroke-linejoin="round"></path> <path d="M305.75 201.34L348.4 207.12" stroke="#2E353A" stroke-width="0.5" stroke-linecap="round" stroke-linejoin="round"></path> <path d="M282.391 198.17L301.361 200.75" stroke="#2E353A" stroke-width="0.5" stroke-linecap="round" stroke-linejoin="round"></path> <path d="M319.92 212.08L347.22 215.78" stroke="#2E353A" stroke-width="0.5" stroke-linecap="round" stroke-linejoin="round"></path> <path d="M296.75 208.93L316.79 211.65" stroke="#2E353A" stroke-width="0.5" stroke-linecap="round" stroke-linejoin="round"></path> <path d="M281.221 206.83L293.301 208.47" stroke="#2E353A" stroke-width="0.5" stroke-linecap="round" stroke-linejoin="round"></path> <path d="M336.279 223.11L346.049 224.43" stroke="#2E353A" stroke-width="0.5" stroke-linecap="round" stroke-linejoin="round"></path> <path d="M280.051 215.49L329.711 222.22" stroke="#2E353A" stroke-width="0.5" stroke-linecap="round" stroke-linejoin="round"></path> <path d="M317.26 229.34L344.88 233.09" stroke="#2E353A" stroke-width="0.5" stroke-linecap="round" stroke-linejoin="round"></path> <path d="M278.871 224.14L312.561 228.71" stroke="#2E353A" stroke-width="0.5" stroke-linecap="round" stroke-linejoin="round"></path> <path d="M325.791 239.32L343.701 241.74" stroke="#2E353A" stroke-width="0.5" stroke-linecap="round" stroke-linejoin="round"></path> <path d="M289.471 234.39L321.411 238.72" stroke="#2E353A" stroke-width="0.5" stroke-linecap="round" stroke-linejoin="round"></path> <path d="M277.701 232.8L285.711 233.88" stroke="#2E353A" stroke-width="0.5" stroke-linecap="round" stroke-linejoin="round"></path> <path d="M361.18 169.74C361.18 169.74 362.58 156.16 367.58 161.62" stroke="#2E353A" stroke-linecap="round" stroke-linejoin="round"></path> <path d="M333.48 274.349L333.39 282.979L328.36 275.879L308.17 207.969L313.29 206.439L333.48 274.349Z" fill="white" stroke="#2E353A" stroke-linecap="round" stroke-linejoin="round"></path> <path d="M311.286 209.341L308.492 210.156L328.33 278.172L331.124 277.357L311.286 209.341Z" fill="#1998FF" stroke="#2E353A" stroke-width="0.5" stroke-linecap="round" stroke-linejoin="round"></path> <path d="M333.481 274.37L328.371 275.89L333.391 282.98L333.481 274.37Z" stroke="#2E353A" stroke-linecap="round" stroke-linejoin="round"></path> <path d="M330.881 279.43L333.391 282.98L333.441 278.67L330.881 279.43Z" fill="#2E353A" stroke="#2E353A" stroke-linecap="round" stroke-linejoin="round"></path> <path d="M308.471 199.6C307.793 199.804 307.224 200.267 306.886 200.889C306.549 201.511 306.472 202.241 306.671 202.92L308.171 207.97L313.291 206.45L311.791 201.4C311.587 200.723 311.123 200.153 310.502 199.816C309.88 199.479 309.15 199.401 308.471 199.6V199.6Z" fill="white" stroke="#2E353A" stroke-linecap="round" stroke-linejoin="round"></path> <path d="M308.471 199.6C307.793 199.804 307.224 200.267 306.886 200.889C306.549 201.511 306.472 202.241 306.671 202.92L307.391 205.33L312.501 203.81L311.791 201.4C311.587 200.723 311.123 200.153 310.502 199.816C309.88 199.479 309.15 199.401 308.471 199.6V199.6Z" fill="#2E353A" stroke="#2E353A" stroke-linecap="round" stroke-linejoin="round"></path> <path d="M56.65 159.489C56.01 160.389 55.38 161.329 54.75 162.319" stroke="white" stroke-linecap="round" stroke-linejoin="round"></path> <path d="M67.1104 147.449C64.3241 150.032 61.7461 152.831 59.4004 155.819" stroke="white" stroke-linecap="round" stroke-linejoin="round"></path> <path d="M55.7596 152.76C53.0275 156.592 50.5521 160.601 48.3496 164.76" stroke="white" stroke-linecap="round" stroke-linejoin="round"></path> <path d="M126.291 174.75C125.661 175.65 125.021 176.59 124.391 177.57" stroke="white" stroke-linecap="round" stroke-linejoin="round"></path> <path d="M136.751 162.71C133.97 165.295 131.395 168.093 129.051 171.08" stroke="white" stroke-linecap="round" stroke-linejoin="round"></path> <path d="M125.41 168C122.679 171.854 120.204 175.883 118 180.06" stroke="white" stroke-linecap="round" stroke-linejoin="round"></path> <path d="M226.11 150C225.2 149.38 224.24 148.76 223.25 148.14" stroke="white" stroke-linecap="round" stroke-linejoin="round"></path> <path d="M238.31 160.28C235.68 157.541 232.842 155.01 229.82 152.71" stroke="white" stroke-linecap="round" stroke-linejoin="round"></path> <path d="M232.83 149C228.938 146.327 224.876 143.912 220.67 141.77" stroke="white" stroke-linecap="round" stroke-linejoin="round"></path> <path d="M123.25 212C122.73 215.76 121.95 221 121.17 224.11" stroke="#2E353A" stroke-linecap="round" stroke-linejoin="round"></path> <path d="M123.83 207.43C123.83 207.43 123.75 208.14 123.6 209.29" stroke="#2E353A" stroke-linecap="round" stroke-linejoin="round"></path> <path d="M126.5 218.1C125.408 221.742 124.072 225.307 122.5 228.77" stroke="#2E353A" stroke-linecap="round" stroke-linejoin="round"></path> <path d="M176.5 223.43C176.5 223.43 177.17 232.1 181.83 236.77" stroke="#2E353A" stroke-linecap="round" stroke-linejoin="round"></path> <path d="M175.83 232.1C175.83 232.1 177.83 238.1 181.83 240.77" stroke="#2E353A" stroke-linecap="round" stroke-linejoin="round"></path> <g style="mix-blend-mode:multiply"> <path d="M40 278.44C40 278.44 44.44 274.87 44.44 244.18C44.44 213.49 49.55 191.07 55.85 181.24C62.15 171.41 68.04 167.47 70.8 167.47C73.56 167.47 71.58 171.01 67.65 176.12C63.72 181.23 60.18 183.99 58.6 190.29C57.02 196.59 57.03 204.45 59 203.66C60.97 202.87 64.11 187.14 66.86 181.24C69.61 175.34 76.31 167.86 80.24 164.32C84.17 160.78 92.83 150.16 96.76 152.91C100.69 155.66 98.34 159.6 95.98 161.17C93.62 162.74 84.17 172.17 79.85 178.09C75.53 184.01 72.77 198.94 75.13 199.33C77.49 199.72 84.57 177.7 88.5 172.98C92.43 168.26 108.17 155.27 111.71 154.88C115.25 154.49 115.65 159.99 112.5 162.75C109.35 165.51 98.73 177.3 95.19 184.38C91.65 191.46 90.07 204.45 93.19 201.3C96.31 198.15 101.45 185.17 105.78 180.84C110.11 176.51 123.09 162.75 126.24 164.32C129.39 165.89 128.6 169.83 125.85 172.58C123.1 175.33 112.47 190.29 109.72 198.15C106.97 206.01 103.81 228.05 105.39 224.91C106.97 221.77 112.08 205.63 114.83 198.91C117.58 192.19 123.09 189.08 123.88 192.22C124.67 195.36 123.09 196.94 121.12 204.03C119.15 211.12 119.12 230.03 113.26 240.61C107.4 251.19 83.88 273.83 80.74 281.69C78.4655 287.103 75.7497 292.321 72.62 297.29" fill="#1998FF"></path> </g> <g style="mix-blend-mode:multiply"> <path d="M258.55 281.1C258.55 281.1 254 274.87 254 244.18C254 213.49 248.88 191.07 242.59 181.24C236.3 171.41 230.39 167.47 227.64 167.47C224.89 167.47 226.85 171.01 230.79 176.12C234.73 181.23 238.26 183.99 239.79 190.29C241.32 196.59 241.37 204.45 239.4 203.66C237.43 202.87 234.29 187.14 231.53 181.24C228.77 175.34 222.09 167.86 218.16 164.32C214.23 160.78 205.57 150.16 201.63 152.91C197.69 155.66 200.06 159.6 202.42 161.17C204.78 162.74 214.22 172.17 218.55 178.09C222.88 184.01 225.63 198.94 223.27 199.33C220.91 199.72 213.86 177.7 209.93 173C206 168.3 190.25 155.29 186.71 154.9C183.17 154.51 182.78 160.01 185.93 162.77C189.08 165.53 199.7 177.32 203.24 184.4C206.78 191.48 208.35 204.47 205.24 201.32C202.13 198.17 196.98 185.19 192.66 180.86C188.34 176.53 175.35 162.77 172.2 164.34C169.05 165.91 169.84 169.85 172.59 172.6C175.34 175.35 185.97 190.31 188.72 198.17C191.47 206.03 194.62 228.07 193.05 224.93C191.48 221.79 186.36 205.65 183.61 198.93C180.86 192.21 175.35 189.1 174.56 192.24C173.77 195.38 175.35 196.96 177.31 204.05C179.27 211.14 179.31 230.05 185.18 240.63C191.05 251.21 213.9 271.86 217.05 279.73C220.2 287.6 225.9 300 225.9 300" fill="#1998FF"></path> </g> <path d="M38.5 286C38.5 286 44.4 266.73 44.4 236C44.4 205.27 49.51 182.89 55.81 173.06C62.11 163.23 68 159.29 70.76 159.29C73.52 159.29 71.54 162.83 67.61 167.94C63.68 173.05 60.14 175.81 58.56 182.1C56.98 188.39 56.99 196.27 58.96 195.48C60.93 194.69 64.07 178.96 66.82 173.06C69.57 167.16 76.27 159.68 80.2 156.14C84.13 152.6 92.79 141.98 96.72 144.73C100.65 147.48 98.3 151.42 95.94 152.99C93.58 154.56 84.13 163.99 79.81 169.91C75.49 175.83 72.73 190.76 75.09 191.15C77.45 191.54 84.53 169.52 88.46 164.79C92.39 160.06 108.13 147.09 111.67 146.7C115.21 146.31 115.61 151.81 112.46 154.57C109.31 157.33 98.69 169.12 95.15 176.2C91.61 183.28 90.03 196.27 93.15 193.12C96.27 189.97 101.41 176.99 105.74 172.66C110.07 168.33 123.05 154.57 126.2 156.14C129.35 157.71 128.56 161.65 125.81 164.4C123.06 167.15 112.43 182.1 109.68 189.97C106.93 197.84 103.77 219.87 105.35 216.72C106.93 213.57 112.04 197.45 114.79 190.72C117.54 183.99 123.05 180.88 123.84 184.03C124.63 187.18 123.05 188.75 121.08 195.83C119.11 202.91 119.08 221.83 113.22 232.42C107.36 243.01 84.5 271.76 81.35 279.63C78.2 287.5 71.12 304.81 71.12 304.81" fill="white"></path> <path d="M38.5 286C38.5 286 44.4 266.73 44.4 236C44.4 205.27 49.51 182.89 55.81 173.06C62.11 163.23 68 159.29 70.76 159.29C73.52 159.29 71.54 162.83 67.61 167.94C63.68 173.05 60.14 175.81 58.56 182.1C56.98 188.39 56.99 196.27 58.96 195.48C60.93 194.69 64.07 178.96 66.82 173.06C69.57 167.16 76.27 159.68 80.2 156.14C84.13 152.6 92.79 141.98 96.72 144.73C100.65 147.48 98.3 151.42 95.94 152.99C93.58 154.56 84.13 163.99 79.81 169.91C75.49 175.83 72.73 190.76 75.09 191.15C77.45 191.54 84.53 169.52 88.46 164.79C92.39 160.06 108.13 147.09 111.67 146.7C115.21 146.31 115.61 151.81 112.46 154.57C109.31 157.33 98.69 169.12 95.15 176.2C91.61 183.28 90.03 196.27 93.15 193.12C96.27 189.97 101.41 176.99 105.74 172.66C110.07 168.33 123.05 154.57 126.2 156.14C129.35 157.71 128.56 161.65 125.81 164.4C123.06 167.15 112.43 182.1 109.68 189.97C106.93 197.84 103.77 219.87 105.35 216.72C106.93 213.57 112.04 197.45 114.79 190.72C117.54 183.99 123.05 180.88 123.84 184.03C124.63 187.18 123.05 188.75 121.08 195.83C119.11 202.91 119.08 221.83 113.22 232.42C107.36 243.01 84.5 271.76 81.35 279.63C78.2 287.5 71.12 304.81 71.12 304.81" stroke="#2E353A" stroke-linecap="round" stroke-linejoin="round"></path> <path d="M259.89 286C259.89 286 253.99 266.73 253.99 236C253.99 205.27 248.87 182.89 242.58 173.06C236.29 163.23 230.38 159.29 227.63 159.29C224.88 159.29 226.84 162.83 230.78 167.94C234.72 173.05 238.25 175.81 239.78 182.1C241.31 188.39 241.36 196.27 239.39 195.48C237.42 194.69 234.28 178.96 231.52 173.06C228.76 167.16 222.08 159.68 218.15 156.14C214.22 152.6 205.56 141.98 201.62 144.73C197.68 147.48 200.05 151.42 202.41 152.99C204.77 154.56 214.21 163.99 218.54 169.91C222.87 175.83 225.62 190.76 223.26 191.15C220.9 191.54 213.82 169.52 209.89 164.79C205.96 160.06 190.21 147.09 186.67 146.7C183.13 146.31 182.74 151.81 185.89 154.57C189.04 157.33 199.66 169.12 203.2 176.2C206.74 183.28 208.31 196.27 205.2 193.12C202.09 189.97 196.94 176.99 192.62 172.66C188.3 168.33 175.31 154.57 172.16 156.14C169.01 157.71 169.8 161.65 172.55 164.4C175.3 167.15 185.93 182.1 188.68 189.97C191.43 197.84 194.58 219.87 193.01 216.72C191.44 213.57 186.32 197.45 183.57 190.72C180.82 183.99 175.31 180.88 174.52 184.03C173.73 187.18 175.31 188.75 177.27 195.83C179.23 202.91 179.27 221.83 185.14 232.42C191.01 243.01 213.86 271.76 217.01 279.63C220.16 287.5 227.24 304.81 227.24 304.81" fill="white"></path> <path d="M259.89 286C259.89 286 253.99 266.73 253.99 236C253.99 205.27 248.87 182.89 242.58 173.06C236.29 163.23 230.38 159.29 227.63 159.29C224.88 159.29 226.84 162.83 230.78 167.94C234.72 173.05 238.25 175.81 239.78 182.1C241.31 188.39 241.36 196.27 239.39 195.48C237.42 194.69 234.28 178.96 231.52 173.06C228.76 167.16 222.08 159.68 218.15 156.14C214.22 152.6 205.56 141.98 201.62 144.73C197.68 147.48 200.05 151.42 202.41 152.99C204.77 154.56 214.21 163.99 218.54 169.91C222.87 175.83 225.62 190.76 223.26 191.15C220.9 191.54 213.82 169.52 209.89 164.79C205.96 160.06 190.21 147.09 186.67 146.7C183.13 146.31 182.74 151.81 185.89 154.57C189.04 157.33 199.66 169.12 203.2 176.2C206.74 183.28 208.31 196.27 205.2 193.12C202.09 189.97 196.94 176.99 192.62 172.66C188.3 168.33 175.31 154.57 172.16 156.14C169.01 157.71 169.8 161.65 172.55 164.4C175.3 167.15 185.93 182.1 188.68 189.97C191.43 197.84 194.58 219.87 193.01 216.72C191.44 213.57 186.32 197.45 183.57 190.72C180.82 183.99 175.31 180.88 174.52 184.03C173.73 187.18 175.31 188.75 177.27 195.83C179.23 202.91 179.27 221.83 185.14 232.42C191.01 243.01 213.86 271.76 217.01 279.63C220.16 287.5 227.24 304.81 227.24 304.81" stroke="#2E353A" stroke-linecap="round" stroke-linejoin="round"></path> <path d="M13.5996 346H73.5996C74.3796 343 75.3596 339.64 76.5996 336C81.3196 321.86 96.5996 304.18 96.5996 304.18C85.6482 294.535 72.7796 287.317 58.8396 283C35.8396 275.92 18.9996 278 18.9996 278C22.0996 290.781 22.4405 304.076 19.9996 317C16.9996 331.56 14.9996 340.77 13.5996 346Z" fill="#2E353A" stroke="#2E353A" stroke-linecap="round" stroke-linejoin="round"></path> <path d="M224.4 346H286.74C284.74 340.82 280.42 329.57 276.1 318.32C270.2 303 272.56 282.38 270.2 282.38C267.84 282.38 241.33 280.61 228.37 284.73C215.41 288.85 200.67 300.64 200.67 300.64C207.342 308.393 213.079 316.905 217.76 326C220.769 332.376 222.998 339.091 224.4 346V346Z" fill="#2E353A" stroke="#2E353A" stroke-linecap="round" stroke-linejoin="round"></path> <path d="M51.0798 290.2C50.6498 288.5 44.2498 291.06 44.2498 291.06C44.2498 291.06 46.3898 282.96 42.9798 282.96C39.5698 282.96 39.1398 288.96 39.1398 288.96C39.1398 288.96 32.7399 286.41 32.7399 290.24C32.7399 294.07 36.9998 294 36.9998 294C36.9998 294 31.8798 300.4 35.7198 301.67C39.5598 302.94 42.1098 298.26 42.1098 298.26C42.1098 298.26 44.6698 302.53 48.1098 300.82C51.5498 299.11 48.9599 295.28 48.9599 295.28C48.9599 295.28 51.4998 291.91 51.0798 290.2ZM42.5499 296.6C42.228 296.528 41.9329 296.367 41.6985 296.135C41.4642 295.903 41.3002 295.61 41.2254 295.289C41.1507 294.967 41.1681 294.632 41.2758 294.32C41.3836 294.008 41.5772 293.734 41.8343 293.527C42.0914 293.321 42.4017 293.191 42.7292 293.153C43.0568 293.115 43.3884 293.171 43.6858 293.313C43.9832 293.456 44.2343 293.679 44.4102 293.958C44.586 294.237 44.6795 294.56 44.6798 294.89C44.6077 295.392 44.3477 295.848 43.9522 296.165C43.5568 296.483 43.0555 296.638 42.5499 296.6V296.6ZM60.4599 338C60.0299 336.3 53.6299 338.86 53.6299 338.86C53.6299 338.86 55.7699 330.76 52.3499 330.76C48.9299 330.76 48.5199 336.76 48.5199 336.76C48.5199 336.76 42.1198 334.2 42.1198 338.03C42.1198 341.86 46.3898 341.87 46.3898 341.87C46.3898 341.87 41.2698 348.27 45.1098 349.55C48.9498 350.83 51.4998 346.13 51.4998 346.13C51.4998 346.13 54.0598 350.4 57.4998 348.69C60.9398 346.98 58.3499 343.15 58.3499 343.15C58.3499 343.15 60.8799 339.66 60.4599 338ZM51.9298 344.4C51.608 344.328 51.3129 344.167 51.0786 343.935C50.8442 343.703 50.6802 343.41 50.6055 343.089C50.5307 342.767 50.5481 342.432 50.6559 342.12C50.7636 341.808 50.9572 341.534 51.2143 341.327C51.4714 341.121 51.7816 340.991 52.1092 340.953C52.4368 340.915 52.7684 340.971 53.0658 341.113C53.3632 341.256 53.6143 341.479 53.7902 341.758C53.966 342.037 54.0595 342.36 54.0598 342.69C53.9877 343.188 53.7257 343.639 53.3287 343.948C52.9317 344.258 52.4305 344.402 51.9298 344.35V344.4ZM22.9298 344.4C22.4998 342.69 16.1098 345.25 16.1098 345.25C16.1098 345.25 18.2398 337.15 14.8298 337.15C11.4198 337.15 10.9898 343.15 10.9898 343.15C10.9898 343.15 4.58984 340.59 4.58984 344.43C4.58984 348.27 8.85985 348.27 8.85985 348.27C8.85985 348.27 3.73985 354.66 7.57985 355.94C11.4198 357.22 13.9698 352.53 13.9698 352.53C13.9698 352.53 16.5298 356.79 19.9698 355.09C23.4098 353.39 20.8298 349.55 20.8298 349.55C20.8298 349.55 23.3598 346.05 22.9398 344.35L22.9298 344.4ZM14.3998 350.79C14.0776 350.718 13.7821 350.557 13.5477 350.324C13.3132 350.092 13.1493 349.798 13.0749 349.476C13.0005 349.154 13.0186 348.818 13.1271 348.507C13.2356 348.195 13.4302 347.92 13.6882 347.714C13.9463 347.508 14.2573 347.379 14.5855 347.343C14.9136 347.306 15.2454 347.363 15.5426 347.507C15.8397 347.651 16.0901 347.876 16.2648 348.156C16.4395 348.436 16.5314 348.76 16.5298 349.09C16.4554 349.584 16.1938 350.031 15.7993 350.338C15.4048 350.645 14.9074 350.789 14.4099 350.74L14.3998 350.79ZM69.3998 311.14H74.0898C77.4998 311.14 79.6299 314.98 79.6299 314.98C72.3899 317.06 69.4099 311.09 69.4099 311.09L69.3998 311.14ZM64.7099 344.4H69.3998C72.8098 344.4 74.9398 348.24 74.9398 348.24C67.6999 350.32 64.7198 344.35 64.7198 344.35L64.7099 344.4ZM23.7898 338H28.4798C31.8898 338 34.0199 341.84 34.0199 341.84C26.7699 343.92 23.7898 338 23.7898 338ZM46.4599 307.91L49.1998 311.72C51.1998 314.5 49.3098 318.46 49.3098 318.46C43.3498 313.77 46.4599 307.86 46.4599 307.86V307.91ZM22.9998 320.65L25.1398 316.48C26.7098 313.48 31.0898 313.3 31.0898 313.3C29.6198 320.72 22.9998 320.65 22.9998 320.65Z" fill="white"></path> <path d="M251.89 298.3C251.46 296.6 245.06 299.16 245.06 299.16C245.06 299.16 247.2 291.06 243.79 291.06C240.38 291.06 239.95 297.06 239.95 297.06C239.95 297.06 233.55 294.51 233.55 298.34C233.55 302.17 237.82 302.18 237.82 302.18C237.82 302.18 232.7 308.58 236.54 309.86C240.38 311.14 242.93 306.44 242.93 306.44C242.93 306.44 245.49 310.71 248.93 309C252.37 307.29 249.78 303.46 249.78 303.46C249.78 303.46 252.31 300 251.89 298.3ZM243.36 304.7C243.038 304.628 242.743 304.467 242.509 304.235C242.275 304.003 242.111 303.709 242.036 303.388C241.961 303.067 241.978 302.731 242.086 302.42C242.194 302.108 242.387 301.833 242.645 301.627C242.902 301.42 243.212 301.291 243.54 301.253C243.867 301.215 244.199 301.271 244.496 301.413C244.793 301.555 245.045 301.779 245.22 302.058C245.396 302.337 245.49 302.66 245.49 302.99C245.43 303.497 245.173 303.96 244.775 304.28C244.376 304.6 243.868 304.75 243.36 304.7V304.7ZM271.92 331.56C271.5 329.85 265.1 332.41 265.1 332.41C265.1 332.41 267.23 324.31 263.82 324.31C260.41 324.31 259.99 330.31 259.99 330.31C259.99 330.31 253.59 327.75 253.59 331.59C253.59 335.43 257.85 335.43 257.85 335.43C257.85 335.43 252.74 341.82 256.58 343.1C260.42 344.38 262.97 339.69 262.97 339.69C262.97 339.69 265.53 343.95 268.97 342.25C272.41 340.55 269.82 336.71 269.82 336.71C269.82 336.71 272.35 333.26 271.92 331.56ZM263.4 338C263.078 337.928 262.782 337.766 262.548 337.534C262.314 337.302 262.15 337.007 262.075 336.686C262.001 336.364 262.019 336.028 262.127 335.716C262.236 335.404 262.43 335.13 262.689 334.924C262.947 334.718 263.258 334.589 263.586 334.552C263.914 334.515 264.246 334.572 264.543 334.716C264.84 334.86 265.09 335.085 265.265 335.365C265.44 335.646 265.532 335.969 265.53 336.3C265.467 336.805 265.209 337.266 264.811 337.583C264.413 337.901 263.907 338.05 263.4 338ZM250.61 344.4C250.18 342.69 243.79 345.25 243.79 345.25C243.79 345.25 245.92 337.15 242.51 337.15C239.1 337.15 238.67 343.15 238.67 343.15C238.67 343.15 232.27 340.59 232.27 344.43C232.27 348.27 236.54 348.27 236.54 348.27C236.54 348.27 231.42 354.66 235.26 355.94C239.1 357.22 241.65 352.53 241.65 352.53C241.65 352.53 244.21 356.79 247.65 355.09C251.09 353.39 248.51 349.55 248.51 349.55C248.51 349.55 251 346.05 250.61 344.35V344.4ZM242.08 350.79C241.758 350.718 241.462 350.556 241.228 350.324C240.994 350.091 240.83 349.797 240.755 349.476C240.681 349.154 240.699 348.818 240.807 348.506C240.916 348.194 241.11 347.92 241.369 347.714C241.627 347.508 241.938 347.379 242.266 347.342C242.594 347.305 242.926 347.362 243.223 347.506C243.52 347.65 243.77 347.875 243.945 348.155C244.12 348.436 244.212 348.759 244.21 349.09C244.136 349.586 243.873 350.034 243.476 350.342C243.079 350.649 242.579 350.791 242.08 350.74V350.79ZM270.22 319.24H274.91C278.32 319.24 280.45 323.08 280.45 323.08C273.2 325.16 270.22 319.19 270.22 319.19V319.24ZM219.91 343.5H224.6C228.01 343.5 230.14 347.33 230.14 347.33C222.89 349.47 219.91 343.5 219.91 343.5ZM247.27 316L250.01 319.81C252.01 322.59 250.12 326.55 250.12 326.55C244.16 321.87 247.27 316 247.27 316ZM275 339.84L277.73 343.65C279.73 346.42 277.84 350.39 277.84 350.39C271.88 345.74 275 339.84 275 339.84ZM223.77 328.75L225.91 324.58C227.48 321.58 231.91 321.4 231.91 321.4C230.43 328.82 223.76 328.75 223.76 328.75H223.77Z" fill="white"></path> </svg> 